<svg width="1435" height="731" viewBox="0 0 1435 731" fill="none" xmlns="http://www.w3.org/2000/svg">
<mask id="mask0_43_23" style="mask-type:luminance" maskUnits="userSpaceOnUse" x="0" y="0" width="1435" height="731">
<path d="M0 453.784C8.94005 456.884 18.1298 455.541 28.0428 450.641C33.8832 447.753 39.9791 443.634 46.4223 438.468C30.1953 440.575 14.9728 437.627 0 428.826V428.324C15.1766 437.288 30.6028 440.21 47.0824 437.934C51.7231 434.174 56.5419 429.88 61.5816 425.115C40.3436 422.348 20.024 414.813 0 403.039V402.565C20.1474 414.443 40.5875 422.015 61.9633 424.75C66.6041 420.35 71.4257 415.554 76.4568 410.413C50.3226 402.565 24.9317 391.052 0 378.336V377.88C25.035 390.653 50.535 402.221 76.7897 410.074C81.4563 405.301 86.3066 400.234 91.3578 394.916C76.3018 388.658 61.3749 381.921 46.6002 375.245C30.8898 368.146 15.3459 361.126 0 354.848V354.406C15.4033 360.706 30.9989 367.75 46.7666 374.872C61.5873 381.568 76.5572 388.325 91.6592 394.6C94.5311 391.573 97.4709 388.468 100.479 385.285C102.425 383.23 104.413 381.129 106.417 379.014L102.333 376.976C67.6603 359.699 33.3264 342.592 0 332.407V331.983C33.3953 342.172 67.7865 359.306 102.514 376.611L106.712 378.704C111.543 373.603 116.542 368.347 121.737 362.945C80.5781 339.916 39.5314 319.011 0 310.842V310.426C39.6404 318.601 80.779 339.56 122.03 362.644C126.969 357.506 132.086 352.25 137.384 346.894C91.0048 318.716 44.4994 295.098 0 289.989V289.579C44.617 294.688 91.2143 318.363 137.677 346.593C142.748 341.472 147.994 336.26 153.413 330.981C101.678 297.53 49.5649 271.231 0 269.716V269.305C49.6854 270.821 101.894 297.177 153.709 330.688C158.923 325.613 164.31 320.478 169.864 315.297C112.633 276.392 54.7424 247.393 0 249.927V249.517C54.8687 246.985 112.857 276.042 170.168 315.013C175.533 310.011 181.064 304.978 186.762 299.915C123.889 255.338 60.0404 223.546 0 230.535V230.125C60.1724 223.138 124.122 254.991 187.075 299.636C192.606 294.731 198.265 289.808 204.126 284.874C135.458 234.381 65.4704 199.676 0 211.485V211.068C65.6111 199.265 135.702 234.037 204.45 284.607C210.14 279.823 215.995 275.041 222.015 270.261C147.389 213.554 71.0526 175.748 0 192.718V192.299C71.1961 175.335 147.636 213.215 222.342 270C228.204 265.35 234.228 260.715 240.414 256.096C159.672 192.864 76.7811 151.726 0 174.184V173.754C76.9303 151.31 159.928 192.529 240.753 255.843C246.797 251.334 252.965 246.842 259.333 242.387C172.318 172.304 82.6617 127.607 0 155.857V155.423C82.8167 127.187 172.582 171.968 259.678 242.14C265.885 237.803 272.286 233.506 278.812 229.244C185.353 151.942 88.7117 103.375 0 137.716V137.274C88.8695 102.956 185.626 151.614 279.168 229.008C285.574 224.829 292.089 220.678 298.81 216.591C198.759 131.714 94.9138 78.9911 0 119.716V119.271C95.0745 78.5749 199.037 131.393 299.172 216.367C305.747 212.374 312.52 208.451 319.408 204.564C212.59 111.702 101.294 54.4753 0 101.868V101.414C101.466 54.0476 212.882 111.383 319.787 204.352C326.549 200.546 333.437 196.788 340.511 193.103C226.785 91.8819 107.829 29.7958 0 84.1319V83.6727C108.001 29.371 227.083 91.5691 340.896 192.902C347.838 189.291 354.947 185.752 362.2 182.279C241.401 72.2744 114.539 4.92981 0 66.4878V66.0199C114.72 4.49925 241.714 71.9702 362.599 182.089C369.731 178.679 377.026 175.347 384.465 172.086C256.446 52.8765 121.427 -20.0941 0 48.9728V48.4992C121.608 -20.5218 256.756 52.5751 384.87 171.908C392.188 168.705 399.607 165.55 407.233 162.507C271.855 33.7053 128.464 -45.3218 0 31.5094V31.033C128.651 -45.7466 272.171 33.4039 407.643 162.338C501.478 124.96 618.821 100.398 767.263 103.231C767.391 103.229 767.518 103.229 767.645 103.229C775.891 103.236 784.236 103.332 792.68 103.516C799.725 103.539 806.842 103.625 814.032 103.774C821.169 103.785 828.381 103.864 835.669 104.009C842.862 104.018 850.143 104.101 857.49 104.245C864.782 104.247 872.153 104.316 879.603 104.454C886.641 104.448 893.761 104.517 900.948 104.638C908.344 104.626 915.84 104.695 923.402 104.813C930.901 104.794 938.484 104.84 946.153 104.951C953.445 104.922 960.818 104.954 968.272 105.045C976.19 105 984.209 105.028 992.317 105.111C1000.02 105.062 1007.81 105.067 1015.69 105.129C1023.86 105.054 1032.13 105.033 1040.49 105.066C1048.97 104.965 1057.55 104.919 1066.23 104.908C1075.35 104.764 1084.58 104.669 1093.93 104.586C1100.27 104.454 1106.66 104.327 1113.11 104.204C1117.18 104.126 1121.28 104.046 1125.4 103.963C1137.8 103.582 1150.38 103.18 1163.12 102.654C1179.29 101.845 1195.71 100.837 1212.34 99.3736C1229.98 97.6743 1247.84 95.424 1265.83 92.2465C1280.66 89.4507 1295.56 85.9546 1310.48 81.5113C1322.67 77.642 1334.85 73.0552 1346.98 67.5843C1377.09 53.086 1406.71 32.4021 1435 2.34648V2.94638C1410.97 28.418 1385.98 47.1472 1360.55 61.0771C1385.81 48.215 1410.77 31.2109 1435 8.5149V9.07462C1406.5 35.7088 1377.02 54.4896 1347.21 67.9344C1344.18 69.3945 1341.14 70.7943 1338.09 72.1338C1370.78 59.5989 1403.32 41.7251 1435 15.8229V16.3539C1400.62 44.4118 1365.23 63.0405 1329.74 75.6586C1325.55 77.3521 1321.36 78.9433 1317.16 80.432C1356.61 68.9936 1396.22 51.5044 1435 24.1182V24.6206C1393.97 53.551 1352.01 71.4219 1310.31 82.7829C1305.02 84.5252 1299.73 86.1154 1294.44 87.5793C1341.07 77.7138 1388.37 61.3498 1435 33.2632V33.7368C1386.09 63.1581 1336.45 79.703 1287.63 89.3876C1281.34 90.9979 1275.05 92.433 1268.78 93.719C1323.34 85.8312 1379.34 71.2899 1435 43.1316V43.588C1376.86 72.9719 1318.35 87.5161 1261.5 95.1455C1254.23 96.5118 1246.98 97.6944 1239.77 98.7393C1303.07 93.142 1368.92 81.1554 1435 53.6371V54.0763C1366.2 82.7054 1297.66 94.5112 1231.98 99.807C1224.51 100.789 1217.07 101.641 1209.69 102.41C1281.79 99.1956 1357.83 90.4295 1435 64.6938V65.1243C1355.33 91.6753 1276.87 100.151 1202.71 103.111C1196.19 103.748 1189.72 104.331 1183.3 104.893C1262.84 103.86 1347.78 98.6101 1435 76.2327V76.6489C1345.8 99.5229 1258.99 104.497 1177.91 105.367L1175.31 105.591C1170.85 105.977 1166.42 106.367 1162.01 106.759C1247.37 107.663 1339.4 105.892 1435 88.1878V88.604C1337.91 106.578 1244.5 108.122 1158.03 107.124C1153.56 107.531 1149.12 107.959 1144.71 108.407C1234.67 111.111 1332.39 112.718 1435 100.516V100.924C1331.22 113.26 1232.45 111.478 1141.65 108.72C1137.76 109.131 1133.9 109.569 1130.07 110.034L1131.35 110.094C1224.78 114.526 1326.82 119.369 1435 113.174V113.582C1326.81 119.776 1224.77 114.934 1131.34 110.499L1127.64 110.324C1124.16 110.762 1120.7 111.231 1117.28 111.731C1130.51 112.574 1143.92 113.456 1157.51 114.348C1243.55 120 1336.49 126.105 1435 126.123V126.53C1336.48 126.513 1243.53 120.408 1157.48 114.753C1143.24 113.817 1129.19 112.896 1115.33 112.015C1112.14 112.493 1108.97 113.006 1105.82 113.553C1136.66 116.005 1168.47 118.786 1201.22 121.651C1274.65 128.074 1352.75 134.909 1435 139.332V139.74C1352.72 135.316 1274.62 128.482 1201.18 122.055C1167.89 119.145 1135.56 116.315 1104.24 113.835C1101.27 114.366 1098.31 114.922 1095.38 115.525C1151.96 120.896 1211.84 127.764 1274.87 134.998C1326.2 140.891 1379.61 147.022 1435 152.771V153.182C1379.58 147.426 1326.16 141.295 1274.83 135.402C1211.31 128.115 1150.99 121.194 1094.03 115.806C1091.26 116.389 1088.53 117.018 1085.81 117.678C1182.79 128.361 1289.56 144.47 1405.7 161.999C1415.4 163.463 1425.17 164.937 1435 166.42V166.83C1425.14 165.345 1415.36 163.869 1405.64 162.401C1289.06 144.809 1181.93 128.643 1084.66 117.959C1082.04 118.605 1079.45 119.277 1076.88 119.997C1184.24 133.462 1303.63 154.691 1435 180.255V180.668C1303.21 155.021 1183.47 133.741 1075.85 120.281C1073.39 120.987 1070.95 121.74 1068.54 122.526C1178.02 137.917 1300.05 162.433 1435 194.257V194.676C1299.69 162.766 1177.38 138.201 1067.67 122.813C1065.32 123.588 1062.99 124.403 1060.68 125.259C1172.19 142.621 1296.68 170.435 1435 208.413V208.838C1296.35 170.763 1171.6 142.909 1059.9 125.549C1057.66 126.39 1055.43 127.265 1053.24 128.189C1166.66 147.57 1293.5 178.691 1435 222.711V223.135C1293.2 179.021 1166.13 147.851 1052.53 128.479C1050.39 129.39 1048.27 130.345 1046.18 131.344C1161.44 152.78 1290.5 187.207 1435 237.131V237.562C1290.24 187.54 1160.98 153.073 1045.57 131.642C1043.51 132.641 1041.46 133.681 1039.43 134.762C1156.48 158.291 1287.63 195.976 1435 251.67V252.106C1287.4 196.312 1156.05 158.586 1038.88 135.064C961.548 176.79 916.443 285.325 939.896 596.114C946.919 689.172 936.777 728.292 913.065 730.083C901.978 730.921 887.929 723.556 871.289 709.712C860.745 708.208 848.165 701.101 833.778 689.447C822.987 687.587 810.31 680.506 795.972 669.194C784.933 667.007 772.165 659.966 757.861 648.989C746.562 646.506 733.67 639.491 719.36 628.819C707.799 626.064 694.772 619.092 680.445 608.721C668.621 605.727 655.451 598.809 641.098 588.74C628.986 585.548 615.649 578.691 601.233 568.92C588.821 565.568 575.289 558.791 560.781 549.318C548.047 545.845 534.302 539.18 519.682 530.03C506.612 526.493 492.635 519.986 477.884 511.186C464.446 507.658 450.211 501.358 435.302 492.95C433.589 492.527 431.866 492.064 430.133 491.561C417.883 488.01 405.118 482.539 391.913 475.587C385.952 474.247 379.893 472.49 373.737 470.349C365.245 467.395 356.575 463.724 347.749 459.464C334.45 456.918 320.786 452.512 306.823 446.729C305.511 446.185 304.195 445.629 302.877 445.061C288.027 442.905 272.88 438.686 257.519 433.023C242.478 431.8 227.31 428.671 212.073 424.199C197.04 424.274 182.076 422.549 167.2 419.526C152.5 421.314 138.087 421.355 123.927 419.991C121.55 420.659 119.189 421.273 116.843 421.834C105.404 424.555 94.3168 426.007 83.5027 426.263C70.7111 432.629 58.7001 436.754 47.2 438.361C40.5416 443.743 34.2506 448.026 28.2236 451.005C18.2417 455.937 8.99171 457.312 0 454.24L0 453.784ZM142.513 413.375C134.313 410.981 126.148 408.269 118.012 405.326C112.332 409.285 106.807 412.927 101.426 416.24C108.868 417.712 116.373 418.837 123.952 419.563C130.037 417.856 136.219 415.798 142.513 413.375ZM165.834 419.242C158.252 417.66 150.692 415.746 143.158 413.561C137.024 415.938 130.991 417.977 125.057 419.678C138.414 420.887 151.998 420.829 165.834 419.242ZM836.22 104.428L836.238 104.425H836.152L836.22 104.428ZM825.911 104.675C827.025 104.645 828.141 104.615 829.261 104.586C827.852 104.54 826.448 104.497 825.048 104.457C824.032 104.467 823.017 104.477 822.005 104.489C823.306 104.55 824.608 104.612 825.911 104.675ZM161.331 405.214C152.526 401.345 143.718 397.241 134.916 393.015C134.116 393.62 133.32 394.22 132.528 394.815C127.72 398.424 123.02 401.832 118.428 405.039C126.636 408.002 134.879 410.726 143.153 413.125C149.109 410.816 155.168 408.179 161.331 405.214ZM186.805 415.671C178.488 412.531 170.159 409.084 161.828 405.43C155.712 408.38 149.708 411.001 143.798 413.315C151.565 415.548 159.357 417.502 167.172 419.09C173.661 418.3 180.202 417.175 186.805 415.671ZM210.629 423.766C202.958 421.472 195.269 418.846 187.569 415.955C181.174 417.434 174.835 418.565 168.549 419.374C182.503 422.135 196.538 423.731 210.629 423.766ZM858.411 104.675L858.538 104.672L858.13 104.664L858.411 104.675ZM847.732 104.913C848.848 104.882 849.979 104.859 851.104 104.827C849.69 104.781 848.278 104.737 846.868 104.695C845.734 104.705 844.601 104.716 843.47 104.73C844.891 104.79 846.306 104.847 847.732 104.913ZM837.65 105.284C839.312 105.221 840.979 105.159 842.649 105.1C840.502 105.006 838.36 104.918 836.223 104.836C834.61 104.865 833.012 104.908 831.405 104.945C833.48 105.052 835.562 105.165 837.65 105.284ZM255.99 432.457C248.355 429.601 240.67 426.386 232.941 422.899C226.449 423.691 219.968 424.096 213.502 424.176C227.743 428.281 241.921 431.194 255.99 432.457ZM179.582 395.65C170.306 390.512 161.001 385.231 151.688 379.926C146.076 384.423 140.608 388.695 135.283 392.74C144.123 396.982 152.974 401.101 161.822 404.982C167.641 402.169 173.56 399.058 179.582 395.65ZM206.551 410.108C197.737 405.573 188.88 400.794 180.001 395.883C174.006 399.281 168.111 402.386 162.316 405.197C170.736 408.883 179.151 412.353 187.557 415.51C193.834 414.055 200.162 412.261 206.551 410.108ZM217.388 415.562C213.963 413.878 210.531 412.153 207.091 410.387C200.765 412.534 194.5 414.316 188.283 415.777C196.233 418.748 204.172 421.444 212.093 423.769C218.769 423.731 225.459 423.335 232.163 422.546C227.253 420.318 222.328 417.99 217.388 415.562ZM880.183 104.882L880.433 104.876L879.896 104.867H879.79L880.183 104.882ZM869.458 105.14C870.658 105.103 871.866 105.074 873.071 105.043C871.738 105.002 870.407 104.965 869.079 104.931C867.842 104.942 866.585 104.936 865.354 104.951C866.717 105.011 868.092 105.077 869.458 105.14ZM859.341 105.516C861.063 105.444 862.8 105.387 864.53 105.324C862.519 105.24 860.515 105.161 858.517 105.089C856.776 105.121 855.039 105.157 853.306 105.198C855.315 105.301 857.324 105.404 859.341 105.516ZM849.351 105.993C851.256 105.889 853.151 105.78 855.071 105.694C852.648 105.568 850.229 105.439 847.821 105.327C845.869 105.384 843.952 105.467 842.015 105.539C844.451 105.683 846.896 105.834 849.351 105.993ZM225.421 402.734C216.249 397.011 207.016 391.109 197.74 385.145C191.868 388.916 186.093 392.417 180.414 395.648C189.337 400.585 198.231 405.381 207.088 409.928C213.145 407.867 219.257 405.469 225.421 402.734ZM252.221 418.955C243.502 413.874 234.711 408.527 225.863 403.01C219.73 405.743 213.646 408.134 207.616 410.2C210.937 411.903 214.254 413.569 217.566 415.198C222.711 417.729 227.841 420.15 232.955 422.46C239.367 421.677 245.789 420.509 252.221 418.955ZM277.67 433.025C269.441 428.754 261.138 424.139 252.767 419.271C246.407 420.826 240.057 422.005 233.718 422.807C241.703 426.395 249.641 429.681 257.522 432.589C264.264 433.137 270.983 433.298 277.67 433.025ZM301.367 444.409C293.811 441.106 286.171 437.423 278.462 433.436C272.019 433.732 265.547 433.628 259.052 433.157C273.367 438.353 287.494 442.268 301.367 444.409ZM188.41 379.14C181.754 374.852 175.081 370.552 168.394 366.284C162.8 370.932 157.345 375.388 152.03 379.654C161.369 384.973 170.696 390.268 179.998 395.418C185.69 392.184 191.48 388.679 197.367 384.904C194.384 382.986 191.398 381.065 188.41 379.14ZM891.58 105.341C892.736 105.307 893.907 105.278 895.07 105.246C893.765 105.206 892.462 105.167 891.161 105.129C889.878 105.143 888.584 105.146 887.304 105.163C888.727 105.223 890.148 105.278 891.58 105.341ZM881.262 105.731C882.927 105.663 884.591 105.591 886.265 105.528C884.273 105.445 882.287 105.367 880.306 105.292C878.592 105.327 876.884 105.366 875.181 105.41C877.201 105.51 879.233 105.622 881.262 105.731ZM871.128 106.222C873.063 106.119 874.98 106.001 876.929 105.909C874.464 105.785 872.007 105.666 869.558 105.554C867.598 105.611 865.667 105.697 863.721 105.769C866.181 105.912 868.65 106.063 871.128 106.222ZM861.129 106.814C863.324 106.67 865.527 106.535 867.739 106.409C864.955 106.239 862.182 106.078 859.422 105.927C857.206 106.016 855.01 106.122 852.812 106.228C855.577 106.414 858.349 106.609 861.129 106.814ZM271.247 413.171C262.226 406.962 253.117 400.541 243.939 394.011C238.018 397.261 232.143 400.206 226.32 402.815C235.205 408.355 244.036 413.722 252.792 418.814C258.934 417.31 265.088 415.45 271.247 413.171ZM297.702 430.832C289.124 425.319 280.448 419.497 271.689 413.475C265.561 415.754 259.445 417.617 253.338 419.133C261.796 424.044 270.185 428.697 278.488 432.994C284.925 432.698 291.328 431.989 297.702 430.832ZM322.886 446.241C314.776 441.568 306.559 436.522 298.25 431.186C291.959 432.348 285.637 433.08 279.285 433.404C287.25 437.509 295.136 441.284 302.937 444.645C309.647 445.615 316.3 446.169 322.886 446.241ZM346.309 458.767C338.864 455.124 331.31 451.074 323.659 446.686C317.313 446.651 310.901 446.166 304.435 445.288C305.285 445.649 306.132 446.005 306.978 446.355C320.384 451.907 333.514 456.189 346.309 458.767ZM214.753 373.164C204.915 366.146 195.017 359.131 185.083 352.253C179.495 357.003 174.041 361.589 168.722 366.011C175.374 370.256 182.013 374.533 188.631 378.798C191.673 380.758 194.709 382.713 197.74 384.663C203.319 381.078 208.991 377.246 214.753 373.164ZM227.08 381.973C223.098 379.124 219.106 376.271 215.104 373.414C209.35 377.491 203.689 381.321 198.119 384.904C207.418 390.886 216.676 396.801 225.875 402.536C231.718 399.93 237.613 396.991 243.554 393.739C238.087 389.846 232.593 385.917 227.08 381.973ZM923.936 105.238H923.962L923.885 105.235L923.936 105.238ZM913.544 105.522C914.69 105.484 915.839 105.448 916.991 105.416C915.548 105.376 914.108 105.338 912.671 105.304C911.641 105.315 910.617 105.335 909.589 105.35C910.905 105.405 912.224 105.463 913.544 105.522ZM903.134 105.912C904.911 105.835 906.713 105.777 908.499 105.711C906.315 105.625 904.139 105.545 901.969 105.47C900.319 105.508 898.689 105.565 897.047 105.608C899.072 105.706 901.101 105.807 903.134 105.912ZM893.069 106.42C895.078 106.308 897.099 106.211 899.119 106.113C896.631 105.99 894.14 105.864 891.669 105.754C889.634 105.818 887.616 105.895 885.596 105.973C888.079 106.114 890.571 106.263 893.069 106.42ZM883.096 107.037C885.249 106.89 887.409 106.75 889.577 106.618C886.823 106.452 884.08 106.294 881.345 106.145C879.09 106.24 876.837 106.337 874.595 106.449C877.419 106.637 880.253 106.833 883.096 107.037ZM873.33 107.764C875.585 107.58 877.841 107.396 880.12 107.233C877.137 107.024 874.166 106.825 871.206 106.636C868.809 106.765 866.401 106.882 864.025 107.029C867.113 107.262 870.215 107.507 873.33 107.764ZM316.486 426.048C307.65 419.454 298.701 412.609 289.658 405.613C283.816 408.551 277.982 411.114 272.153 413.303C280.953 419.351 289.672 425.192 298.288 430.726C304.384 429.592 310.454 428.051 316.486 426.048ZM342.601 444.94C334.157 439.056 325.59 432.833 316.917 426.369C310.921 428.378 304.894 429.934 298.836 431.079C307.233 436.464 315.536 441.553 323.725 446.255C330.082 446.287 336.375 445.862 342.601 444.94ZM367.423 461.413C359.453 456.428 351.351 451.028 343.131 445.311C336.978 446.244 330.753 446.68 324.471 446.68C332.372 451.201 340.17 455.357 347.853 459.065C354.468 460.331 360.997 461.135 367.423 461.413ZM390.532 474.858C383.202 470.952 375.738 466.597 368.155 461.87C361.962 461.634 355.673 460.914 349.302 459.76C357.639 463.733 365.836 467.171 373.869 469.967C379.506 471.928 385.062 473.569 390.532 474.858ZM231.793 360.586C221.848 352.939 211.838 345.356 201.787 337.956C196.196 342.772 190.734 347.447 185.402 351.981C195.347 358.869 205.254 365.89 215.104 372.917C220.578 369.034 226.141 364.924 231.793 360.586ZM261.044 383.311C251.478 375.836 241.832 368.307 232.126 360.841C226.479 365.178 220.922 369.286 215.454 373.167C219.418 375.995 223.371 378.82 227.313 381.643C232.88 385.624 238.428 389.594 243.95 393.523C249.604 390.415 255.298 387.034 261.044 383.311ZM264.597 386.089L261.391 383.583C255.66 387.303 249.977 390.69 244.335 393.796C253.542 400.343 262.674 406.782 271.717 413.005C277.566 410.821 283.421 408.261 289.282 405.324C281.125 399.009 272.891 392.573 264.597 386.089ZM935.847 105.677C936.987 105.639 938.129 105.602 939.274 105.568C937.808 105.53 936.345 105.492 934.885 105.456C933.85 105.469 932.816 105.485 931.783 105.502C933.126 105.554 934.495 105.62 935.847 105.677ZM925.506 106.085C927.173 106.008 928.844 105.937 930.52 105.872C928.319 105.786 926.149 105.726 923.959 105.651C922.367 105.687 920.778 105.728 919.192 105.772C921.291 105.871 923.396 105.975 925.506 106.085ZM915.234 106.604C917.212 106.492 919.183 106.377 921.172 106.277C918.649 106.156 916.133 106.041 913.624 105.932C911.607 105.998 909.606 106.079 907.603 106.159C910.138 106.301 912.682 106.449 915.234 106.604ZM905.241 107.233C907.402 107.083 909.56 106.931 911.739 106.799C908.882 106.631 906.036 106.472 903.2 106.323C901.011 106.42 898.847 106.541 896.671 106.653C899.516 106.837 902.373 107.03 905.241 107.233ZM895.377 107.976C897.669 107.787 899.97 107.606 902.279 107.434C899.218 107.223 896.17 107.022 893.135 106.831C890.791 106.963 888.463 107.109 886.138 107.259C889.204 107.486 892.283 107.725 895.377 107.976ZM885.754 108.831C888.115 108.604 890.486 108.388 892.868 108.186C889.62 107.929 886.383 107.684 883.159 107.451C880.735 107.615 878.321 107.79 875.918 107.976C879.182 108.248 882.461 108.533 885.754 108.831ZM334.125 418.8C325.116 411.32 315.993 403.644 306.771 395.871C301.195 399.419 295.624 402.591 290.057 405.407C299.12 412.422 308.092 419.282 316.951 425.887C322.709 423.952 328.434 421.604 334.125 418.8ZM360.911 440.666C352.232 433.734 343.421 426.518 334.499 419.11C328.827 421.917 323.119 424.265 317.382 426.208C326.101 432.704 334.708 438.953 343.192 444.857C349.164 443.941 355.074 442.552 360.911 440.666ZM386.664 460.595C378.358 454.404 369.906 447.842 361.327 440.996C355.521 442.891 349.646 444.283 343.703 445.216C352.011 450.988 360.199 456.43 368.25 461.451C374.486 461.68 380.625 461.413 386.664 460.595ZM411.171 477.996C403.318 472.737 395.308 467.031 387.163 460.969C381.199 461.801 375.138 462.097 368.982 461.907C376.805 466.767 384.497 471.227 392.048 475.203C398.545 476.658 404.923 477.614 411.171 477.996ZM433.961 492.19C426.746 488.073 419.376 483.469 411.859 478.455C405.841 478.125 399.702 477.266 393.451 475.935C406.151 482.536 418.44 487.752 430.245 491.173C431.488 491.533 432.727 491.872 433.961 492.19ZM248.522 347.29C238.586 339.21 228.584 331.239 218.533 323.486C212.931 328.341 207.454 333.073 202.103 337.683C212.159 345.089 222.175 352.678 232.126 360.33C237.506 356.193 242.971 351.847 248.522 347.29ZM277.885 371.562C268.282 363.525 258.596 355.485 248.843 347.552C243.299 352.106 237.837 356.451 232.459 360.586C242.173 368.06 251.828 375.592 261.4 383.075C266.85 379.533 272.346 375.687 277.885 371.562ZM301.476 391.408C293.785 384.921 286.024 378.379 278.212 371.838C272.682 375.962 267.191 379.806 261.75 383.348L264.846 385.768C273.192 392.292 281.475 398.768 289.683 405.117C295.26 402.304 300.842 399.132 306.43 395.584L301.476 391.408ZM958.54 105.792C959.655 105.752 960.772 105.714 961.889 105.68C960.46 105.645 959.016 105.599 957.59 105.568C956.373 105.585 955.159 105.604 953.948 105.625C955.48 105.683 957.002 105.731 958.54 105.792ZM947.895 106.219C949.55 106.141 951.209 106.068 952.872 106.001C950.785 105.924 948.687 105.843 946.612 105.775C944.825 105.82 943.043 105.869 941.265 105.921C943.475 106.019 945.674 106.11 947.895 106.219ZM937.609 106.75C939.529 106.639 941.449 106.527 943.38 106.426C940.868 106.309 938.362 106.196 935.861 106.087C933.844 106.158 931.835 106.234 929.834 106.314C932.417 106.452 935.009 106.597 937.609 106.75ZM927.449 107.399C929.622 107.244 931.791 107.089 933.984 106.951C931.166 106.793 928.358 106.64 925.561 106.495C923.295 106.596 921.039 106.706 918.79 106.825C921.666 107.007 924.552 107.198 927.449 107.399ZM917.565 108.16C919.855 107.967 922.148 107.775 924.461 107.603C921.392 107.398 918.336 107.203 915.292 107.017C912.906 107.151 910.53 107.295 908.163 107.448C911.285 107.676 914.419 107.913 917.565 108.16ZM907.927 109.035C910.292 108.8 912.67 108.577 915.059 108.366C911.789 108.114 908.535 107.873 905.296 107.643C902.833 107.812 900.382 107.99 897.943 108.18C901.257 108.452 904.585 108.737 907.927 109.035ZM898.468 110.037C900.869 109.763 903.283 109.502 905.709 109.253C902.269 108.953 898.844 108.665 895.434 108.389C892.932 108.592 890.44 108.807 887.961 109.032C891.449 109.354 894.951 109.689 898.468 110.037ZM377.947 433.568C369.099 425.766 360.122 417.735 351.033 409.566C345.686 413.111 340.31 416.219 334.9 418.918C343.846 426.343 352.68 433.577 361.379 440.52C366.967 438.686 372.492 436.378 377.947 433.568ZM404.386 456.462C395.833 449.22 387.131 441.662 378.298 433.875C372.865 436.688 367.36 439.007 361.792 440.85C370.414 447.725 378.9 454.312 387.243 460.524C393.058 459.7 398.772 458.359 404.386 456.462ZM429.843 477.338C421.646 470.866 413.286 463.985 404.776 456.789C399.194 458.695 393.514 460.047 387.734 460.888C395.962 467.005 404.05 472.754 411.974 478.047C418.059 478.372 424.017 478.156 429.843 477.338ZM454.091 495.574C446.334 490.071 438.401 484.086 430.308 477.706C424.553 478.538 418.67 478.788 412.663 478.504C420.415 483.659 428.015 488.381 435.445 492.571C441.811 494.144 448.03 495.169 454.091 495.574ZM476.604 510.416C469.486 506.119 462.191 501.3 454.729 496.027C448.882 495.677 442.89 494.747 436.759 493.303C450.673 501.056 463.987 506.943 476.604 510.416ZM264.976 333.389C255.163 325.056 245.282 316.867 235.354 308.914L227.978 315.306C224.898 317.975 221.855 320.612 218.849 323.217C228.9 330.972 238.905 338.946 248.843 347.029C254.141 342.676 259.519 338.129 264.976 333.389ZM294.178 358.68C284.624 350.261 274.989 341.891 265.291 333.653C259.834 338.391 254.459 342.937 249.165 347.29C258.92 355.227 268.609 363.27 278.218 371.315C283.499 367.371 288.817 363.178 294.178 358.68ZM322.752 384.129C313.424 375.756 303.999 367.334 294.494 358.958C289.135 363.453 283.823 367.647 278.548 371.591C286.337 378.11 294.069 384.631 301.737 391.098L306.789 395.355C312.107 391.962 317.428 388.23 322.752 384.129ZM338 397.843C333.055 393.391 328.075 388.908 323.07 384.416C317.752 388.515 312.437 392.249 307.127 395.642C316.366 403.429 325.504 411.116 334.527 418.608C339.951 415.915 345.341 412.815 350.7 409.267C346.49 405.484 342.257 401.676 338 397.843ZM981.397 105.869C982.556 105.827 983.719 105.788 984.886 105.752C983.428 105.717 981.973 105.686 980.521 105.657C979.276 105.674 978.016 105.686 976.776 105.709C978.317 105.763 979.85 105.812 981.397 105.869ZM970.522 106.314C972.271 106.234 974.024 106.157 975.783 106.085C973.673 106.016 971.555 105.938 969.457 105.878C967.632 105.92 965.812 105.968 963.999 106.021C966.168 106.115 968.343 106.213 970.522 106.314ZM959.958 106.868C962.022 106.748 964.094 106.635 966.174 106.529C963.623 106.418 961.068 106.3 958.534 106.202C956.437 106.275 954.348 106.353 952.266 106.438C954.82 106.572 957.392 106.722 959.958 106.868ZM949.849 107.523C952.042 107.366 954.244 107.219 956.456 107.083C953.598 106.928 950.733 106.768 947.895 106.63C945.63 106.733 943.373 106.845 941.125 106.966C944.023 107.144 946.932 107.329 949.849 107.523ZM939.896 108.298C942.244 108.099 944.601 107.911 946.968 107.735C943.849 107.532 940.744 107.341 937.652 107.161C935.253 107.299 932.864 107.446 930.486 107.603C933.61 107.825 936.747 108.056 939.896 108.298ZM930.138 109.202C932.54 108.963 934.954 108.735 937.382 108.519C934.072 108.272 930.777 108.035 927.498 107.81C925.026 107.984 922.566 108.168 920.119 108.364C923.445 108.631 926.784 108.911 930.138 109.202ZM920.673 110.224C923.097 109.942 925.534 109.675 927.983 109.423C924.512 109.128 921.056 108.844 917.614 108.57C915.113 108.781 912.624 109.003 910.146 109.236C913.64 109.554 917.149 109.883 920.673 110.224ZM911.412 111.377C913.855 111.052 916.313 110.741 918.785 110.445C915.166 110.098 911.566 109.766 907.982 109.449C905.447 109.697 902.925 109.96 900.417 110.235C904.065 110.601 907.73 110.981 911.412 111.377ZM420.696 449.143C411.966 441.031 403.091 432.655 394.085 424.107C389.017 427.784 383.883 430.959 378.685 433.674C387.539 441.482 396.264 449.056 404.839 456.31C410.223 454.459 415.51 452.079 420.696 449.143ZM446.888 473.03C438.427 465.492 429.803 457.604 421.029 449.453C415.863 452.392 410.594 454.78 405.23 456.643C413.774 463.865 422.171 470.771 430.4 477.264C436.025 476.434 441.524 475.039 446.888 473.03ZM472.138 494.819C464.022 488.076 455.722 480.889 447.252 473.354C441.92 475.366 436.455 476.781 430.864 477.628C439.03 484.061 447.034 490.088 454.855 495.62C460.773 495.967 466.536 495.72 472.138 494.819ZM496.183 513.829C488.503 508.106 480.63 501.863 472.574 495.18C467.035 496.099 461.335 496.369 455.489 496.067C463.186 501.492 470.712 506.435 478.042 510.81C478.828 511.016 479.612 511.213 480.395 511.401C485.793 512.69 491.057 513.514 496.183 513.829ZM518.483 529.275C511.443 524.817 504.202 519.794 496.777 514.277C491.436 513.981 485.943 513.143 480.3 511.794C479.958 511.712 479.614 511.626 479.27 511.536C493.066 519.676 506.173 525.776 518.483 529.275ZM281.188 318.954C271.602 310.547 261.959 302.297 252.267 294.289C246.617 299.167 241.084 303.952 235.667 308.644C245.595 316.598 255.473 324.787 265.288 333.116C270.512 328.576 275.812 323.855 281.188 318.954ZM309.943 344.762C300.532 336.145 291.044 327.605 281.495 319.224C276.121 324.123 270.823 328.842 265.601 333.383C275.302 341.621 284.939 349.997 294.496 358.419C299.608 354.122 304.754 349.581 309.943 344.762ZM338.304 371.117C329.04 362.4 319.681 353.68 310.247 345.037C305.064 349.856 299.918 354.4 294.812 358.694C304.32 367.076 313.748 375.498 323.079 383.873C328.15 379.952 333.224 375.721 338.304 371.117ZM366.252 397.608C357.14 388.931 347.922 380.168 338.605 371.401C333.534 376.006 328.463 380.236 323.394 384.16C328.383 388.638 333.345 393.104 338.273 397.542C342.555 401.398 346.813 405.228 351.047 409.032C356.148 405.637 361.216 401.829 366.252 397.608ZM374.331 405.309L366.562 397.904C361.534 402.125 356.472 405.934 351.377 409.331C360.483 417.511 369.472 425.554 378.332 433.364C383.541 430.655 388.69 427.48 393.764 423.806C387.352 417.718 380.872 411.544 374.331 405.309ZM1004.79 105.889C1005.97 105.846 1007.16 105.812 1008.34 105.772C1006.95 105.746 1005.54 105.711 1004.14 105.688C1002.87 105.711 1001.59 105.726 1000.33 105.752C1001.81 105.796 1003.3 105.842 1004.79 105.889ZM993.646 106.357C995.439 106.274 997.253 106.199 999.058 106.125C996.889 106.058 994.725 105.995 992.567 105.935C990.757 105.981 988.952 106.031 987.154 106.085C989.312 106.173 991.476 106.263 993.646 106.357ZM982.938 106.931C985.042 106.809 987.154 106.693 989.272 106.584C986.633 106.475 984.004 106.373 981.385 106.277C979.305 106.353 977.234 106.435 975.171 106.521C977.746 106.647 980.349 106.794 982.938 106.931ZM972.568 107.614C974.838 107.452 977.118 107.298 979.41 107.152C976.435 107.001 973.472 106.859 970.522 106.725C968.239 106.834 965.965 106.95 963.697 107.075C966.642 107.245 969.599 107.425 972.568 107.614ZM962.532 108.41C964.891 108.207 967.263 108.014 969.647 107.833C966.398 107.632 963.181 107.454 959.963 107.279C957.607 107.416 955.271 107.571 952.938 107.729C956.123 107.947 959.321 108.174 962.532 108.41ZM952.714 109.331C955.13 109.086 957.558 108.853 959.998 108.633C956.615 108.388 953.246 108.155 949.89 107.933C947.419 108.108 944.968 108.303 942.522 108.504C945.905 108.77 949.302 109.046 952.714 109.331ZM943.159 110.379C945.61 110.09 948.073 109.814 950.547 109.552C946.996 109.257 943.461 108.976 939.942 108.708C937.428 108.923 934.934 109.159 932.446 109.4C936.001 109.714 939.572 110.04 943.159 110.379ZM933.849 111.561C936.294 111.228 938.753 110.911 941.225 110.608C937.529 110.264 933.847 109.932 930.181 109.612C927.665 109.869 925.165 110.138 922.679 110.422C926.385 110.787 930.109 111.167 933.849 111.561ZM924.814 112.873C927.248 112.496 929.695 112.135 932.156 111.791C928.329 111.391 924.518 111.006 920.722 110.637C918.204 110.934 915.699 111.245 913.208 111.573C917.058 111.99 920.927 112.423 924.814 112.873ZM462.414 465.211C453.758 456.778 444.939 448.058 435.973 439.131C431.215 443.046 426.353 446.399 421.402 449.243C430.193 457.412 438.84 465.317 447.318 472.869C452.478 470.9 457.512 468.371 462.414 465.211ZM488.465 490.088C480.062 482.252 471.481 474.032 462.73 465.518C457.845 468.678 452.826 471.216 447.683 473.191C456.186 480.76 464.524 487.973 472.675 494.738C478.096 493.823 483.363 492.29 488.465 490.088ZM513.604 512.79C505.533 505.778 497.262 498.286 488.807 490.407C483.73 492.611 478.492 494.156 473.099 495.089C481.23 501.825 489.171 508.117 496.915 513.872C502.658 514.177 508.225 513.841 513.604 512.79ZM537.508 532.567C529.888 526.625 522.047 520.121 514.008 513.14C508.69 514.205 503.188 514.576 497.512 514.317C505.16 519.983 512.605 525.121 519.837 529.654C522.095 530.266 524.326 530.786 526.53 531.215C530.271 531.942 533.93 532.393 537.508 532.567ZM559.656 548.587C552.679 543.98 545.478 538.761 538.07 533.006C534.29 532.851 530.417 532.387 526.453 531.614C524.654 531.264 522.837 530.852 521.003 530.38C534.707 538.868 547.63 545.131 559.656 548.587ZM297.18 304.068C287.93 295.744 278.625 287.587 269.275 279.662C263.598 284.528 258.033 289.313 252.58 294.016C262.269 302.022 271.91 310.274 281.492 318.679C286.647 313.977 291.876 309.107 297.18 304.068ZM325.2 329.91C316.027 321.265 306.783 312.72 297.481 304.344C292.181 309.38 286.954 314.249 281.8 318.948C291.345 327.327 300.831 335.866 310.238 344.48C315.19 339.872 320.177 335.016 325.2 329.91ZM353.102 356.674C343.981 347.79 334.774 338.938 325.498 330.192C320.476 335.295 315.49 340.15 310.543 344.756C319.979 353.401 329.335 362.122 338.603 370.839C343.434 366.443 348.267 361.722 353.102 356.674ZM380.863 384.028C371.806 375.021 362.645 365.974 353.397 356.961C348.564 362.007 343.733 366.729 338.904 371.126C348.223 379.895 357.45 388.661 366.565 397.344C371.364 393.302 376.131 388.871 380.863 384.028ZM408.435 411.584C399.461 402.588 390.363 393.475 381.162 384.324C376.432 389.163 371.668 393.595 366.875 397.64C369.464 400.106 372.043 402.564 374.612 405.014C381.173 411.265 387.671 417.459 394.103 423.565C398.944 420.037 403.726 416.056 408.435 411.584ZM410.574 413.725L408.737 411.885C404.03 416.354 399.257 420.336 394.421 423.869C403.439 432.426 412.327 440.81 421.066 448.933C426.029 446.091 430.899 442.742 435.666 438.826C427.42 430.611 419.052 422.224 410.574 413.725ZM1028.9 105.855C1030.11 105.811 1031.31 105.767 1032.53 105.723C1031.03 105.703 1029.56 105.686 1028.08 105.668C1026.85 105.691 1025.62 105.709 1024.4 105.734C1025.9 105.775 1027.39 105.812 1028.9 105.855ZM1017.5 106.346C1019.26 106.26 1021.02 106.178 1022.79 106.102C1020.64 106.044 1018.47 105.984 1016.33 105.935C1014.46 105.987 1012.6 106.042 1010.75 106.102C1013 106.182 1015.24 106.257 1017.5 106.346ZM1006.36 106.943C1008.47 106.815 1010.58 106.694 1012.71 106.581C1010.06 106.484 1007.42 106.386 1004.79 106.3C1002.66 106.377 1000.55 106.469 998.439 106.558C1001.06 106.679 1003.71 106.814 1006.36 106.943ZM995.683 107.643C997.968 107.477 1000.25 107.313 1002.55 107.167C999.573 107.027 996.605 106.894 993.649 106.768C991.305 106.881 988.971 107.001 986.649 107.129C989.649 107.292 992.66 107.463 995.683 107.643ZM985.4 108.458C987.801 108.25 990.214 108.053 992.638 107.867C989.387 107.678 986.169 107.511 982.949 107.342C980.464 107.491 977.981 107.64 975.519 107.807C978.805 108.019 982.082 108.226 985.4 108.458ZM975.41 109.397C977.849 109.147 980.309 108.92 982.771 108.697C979.359 108.461 975.969 108.24 972.583 108.025C970.083 108.206 967.583 108.392 965.106 108.599C968.526 108.853 971.96 109.119 975.41 109.397ZM965.746 110.476C968.23 110.182 970.727 109.901 973.237 109.635C969.665 109.352 966.11 109.08 962.572 108.82C960.01 109.04 957.462 109.274 954.926 109.52C958.518 109.827 962.124 110.145 965.746 110.476ZM956.413 111.682C958.883 111.343 961.367 111.021 963.864 110.714C960.146 110.378 956.445 110.054 952.76 109.744C950.207 110.003 947.668 110.275 945.143 110.562C948.883 110.922 952.64 111.295 956.413 111.682ZM947.304 113.034C949.768 112.645 952.248 112.274 954.743 111.92C950.88 111.53 947.036 111.154 943.211 110.792C940.657 111.094 938.117 111.412 935.591 111.745C939.477 112.158 943.381 112.588 947.304 113.034ZM938.49 114.521C940.916 114.086 943.358 113.671 945.814 113.275C941.825 112.825 937.854 112.392 933.901 111.975C931.385 112.317 928.883 112.677 926.396 113.054C930.408 113.525 934.439 114.013 938.49 114.521ZM476.463 454.051C467.672 444.909 458.729 435.543 449.649 426.025C445.292 430.835 440.838 435.109 436.292 438.872C445.266 447.811 454.094 456.54 462.762 464.978C467.451 461.921 472.023 458.29 476.463 454.051ZM503.148 481.515C494.521 472.754 485.719 463.672 476.759 454.358C472.322 458.595 467.761 462.226 463.077 465.286C471.845 473.822 480.449 482.06 488.87 489.91C493.784 487.755 498.548 484.973 503.148 481.515ZM529.182 507.437C520.799 499.288 512.215 490.72 503.453 481.825C498.861 485.281 494.114 488.065 489.214 490.232C497.704 498.14 506.007 505.657 514.103 512.69C519.312 511.628 524.343 509.897 529.182 507.437ZM554.283 531.069C546.239 523.781 537.973 515.979 529.504 507.75C524.688 510.21 519.685 511.952 514.502 513.034C522.616 520.069 530.525 526.628 538.208 532.601C543.776 532.811 549.137 532.323 554.283 531.069ZM578.133 551.626C570.545 545.466 562.715 538.695 554.662 531.413C549.571 532.679 544.264 533.19 538.756 533.026C546.376 538.931 553.775 544.267 560.933 548.943C563.992 549.775 566.994 550.429 569.933 550.883C572.721 551.312 575.454 551.559 578.133 551.626ZM600.186 568.211C593.249 563.461 586.071 558.047 578.661 552.051C575.795 552.003 572.864 551.748 569.87 551.285C567.299 550.889 564.678 550.338 562.015 549.649C575.656 558.466 588.419 564.853 600.186 568.211ZM312.974 288.786C304.165 280.689 295.303 272.77 286.406 265.057C280.689 269.906 275.084 274.684 269.591 279.392C278.932 287.314 288.231 295.469 297.476 303.79C302.573 298.945 307.739 293.944 312.974 288.786ZM340.009 314.244C331.155 305.719 322.241 297.303 313.275 289.059C308.038 294.216 302.873 299.217 297.78 304.063C307.076 312.435 316.314 320.978 325.484 329.617C330.292 324.728 335.134 319.604 340.009 314.244ZM367.234 340.97C358.331 332.075 349.348 323.245 340.302 314.528C335.426 319.886 330.587 325.01 325.782 329.899C335.058 338.648 344.265 347.5 353.386 356.381C358.001 351.555 362.617 346.418 367.234 340.97ZM394.588 368.703C385.656 359.535 376.63 350.367 367.524 341.263C362.909 346.709 358.294 351.845 353.679 356.671C362.929 365.681 372.09 374.728 381.147 383.735C385.659 379.103 390.142 374.105 394.588 368.703ZM422.011 397.1C413.073 387.777 404.027 378.391 394.88 369.002C390.432 374.398 385.952 379.398 381.446 384.031C390.653 393.188 399.754 402.307 408.734 411.305C413.223 407.027 417.648 402.291 422.011 397.1ZM446.79 423.028C438.731 414.58 430.56 406.018 422.3 397.401C417.942 402.591 413.52 407.326 409.035 411.607L410.863 413.438C419.35 421.949 427.73 430.345 435.987 438.568C440.536 434.805 444.996 430.537 449.359 425.72L446.79 423.028ZM1053.93 105.734C1055.09 105.688 1056.24 105.64 1057.4 105.597C1056.05 105.582 1054.69 105.568 1053.34 105.556C1052.05 105.582 1050.75 105.605 1049.46 105.637C1050.95 105.667 1052.44 105.7 1053.93 105.734ZM1041.88 106.26C1043.72 106.168 1045.57 106.081 1047.42 105.998C1045.18 105.952 1042.94 105.909 1040.71 105.869C1038.85 105.921 1036.99 105.984 1035.14 106.044C1037.38 106.116 1039.62 106.182 1041.88 106.26ZM1030.32 106.877C1032.52 106.742 1034.74 106.627 1036.95 106.509C1034.26 106.423 1031.58 106.337 1028.91 106.262C1026.64 106.347 1024.38 106.439 1022.12 106.538C1024.85 106.647 1027.57 106.756 1030.32 106.877ZM1019.29 107.612C1021.67 107.439 1024.06 107.277 1026.47 107.124C1023.47 106.997 1020.47 106.868 1017.5 106.753C1015.05 106.87 1012.6 106.995 1010.17 107.129C1013.2 107.284 1016.24 107.445 1019.29 107.612ZM1008.76 108.453C1011.21 108.24 1013.67 108.038 1016.15 107.847C1012.87 107.675 1009.61 107.51 1006.36 107.353C1003.84 107.504 1001.32 107.665 998.826 107.835C1002.13 108.036 1005.43 108.234 1008.76 108.453ZM998.462 109.429C1000.97 109.168 1003.5 108.922 1006.04 108.691C1002.57 108.467 999.133 108.26 995.692 108.054C993.143 108.241 990.606 108.44 988.081 108.651C991.528 108.9 994.995 109.162 998.462 109.429ZM988.663 110.516C991.133 110.218 993.618 109.934 996.117 109.664C992.541 109.394 988.956 109.119 985.409 108.869C982.833 109.095 980.27 109.334 977.72 109.586C981.353 109.887 985.001 110.197 988.663 110.516ZM979.144 111.748C981.656 111.4 984.183 111.067 986.726 110.752C982.949 110.425 979.191 110.111 975.453 109.81C972.858 110.076 970.279 110.359 967.715 110.657C971.507 111.007 975.317 111.371 979.144 111.748ZM969.985 113.131C972.469 112.733 974.967 112.354 977.479 111.995C973.566 111.612 969.671 111.244 965.792 110.89C963.221 111.2 960.655 111.518 958.112 111.86C962.052 112.269 966.009 112.693 969.985 113.131ZM961.14 114.655C963.583 114.208 966.042 113.782 968.516 113.378C964.479 112.936 960.461 112.509 956.462 112.098C953.911 112.451 951.371 112.816 948.851 113.206C952.926 113.671 957.023 114.154 961.14 114.655ZM952.533 116.335C954.942 115.837 957.366 115.361 959.805 114.905C955.636 114.402 951.488 113.916 947.361 113.447C944.851 113.845 942.355 114.261 939.873 114.696C944.073 115.224 948.293 115.77 952.533 116.335ZM516.25 469.307C507.462 459.806 498.508 450.052 489.407 440.121C485.409 445.357 481.288 449.992 477.051 454.074C486.023 463.403 494.84 472.499 503.478 481.271C507.887 477.921 512.146 473.945 516.25 469.307ZM543.004 497.922C534.368 488.808 525.54 479.345 516.54 469.617C512.439 474.253 508.182 478.228 503.78 481.578C512.562 490.493 521.16 499.076 529.561 507.239C534.222 504.828 538.708 501.745 543.004 497.922ZM569.101 524.926C560.709 516.447 552.102 507.52 543.294 498.229C539.009 502.046 534.532 505.135 529.882 507.552C538.386 515.813 546.686 523.646 554.762 530.957C559.75 529.691 564.535 527.699 569.101 524.926ZM594.265 549.542C586.215 541.965 577.92 533.83 569.408 525.236C564.862 528.009 560.098 530.007 555.13 531.29C563.252 538.635 571.15 545.452 578.796 551.646C584.188 551.724 589.349 551.044 594.265 549.542ZM618.135 570.909C610.549 564.52 602.703 557.476 594.612 549.87C589.745 551.382 584.639 552.086 579.307 552.057C586.921 558.202 594.288 563.731 601.391 568.55C604.815 569.471 608.156 570.137 611.405 570.522C613.695 570.794 615.938 570.923 618.135 570.909ZM640.142 588.068C633.231 583.172 626.047 577.557 618.614 571.311C616.247 571.346 613.829 571.218 611.359 570.927C608.443 570.582 605.449 570.008 602.393 569.23C615.997 578.358 628.619 584.851 640.142 588.068ZM328.578 273.16C320.26 265.393 311.897 257.784 303.503 250.369C301.43 252.172 299.379 253.986 297.349 255.812L297.341 255.815C293.759 258.832 290.218 261.824 286.719 264.79C295.61 272.497 304.464 280.411 313.263 288.499C318.303 283.532 323.408 278.419 328.578 273.16ZM354.393 297.854C345.938 289.579 337.429 281.424 328.876 273.439C323.706 278.697 318.603 283.808 313.565 288.772C322.525 297.01 331.433 305.42 340.282 313.942C344.954 308.796 349.658 303.445 354.393 297.854ZM380.72 324.138C372.107 315.375 363.425 306.692 354.686 298.138C349.948 303.73 345.247 309.08 340.571 314.224C349.615 322.938 358.595 331.765 367.495 340.657C371.903 335.446 376.312 329.94 380.72 324.138ZM407.488 351.82C398.741 342.64 389.91 333.493 381.01 324.431C376.601 330.231 372.193 335.736 367.785 340.947C376.891 350.052 385.915 359.217 394.849 368.385C399.091 363.221 403.307 357.721 407.488 351.82ZM434.555 380.572C425.724 371.094 416.796 361.591 407.775 352.121C403.594 358.02 399.381 363.519 395.139 368.683C404.285 378.075 413.337 387.464 422.277 396.787C426.431 391.819 430.524 386.414 434.555 380.572ZM461.829 410.057C452.949 400.401 443.949 390.653 434.842 380.879C430.811 386.72 426.719 392.124 422.567 397.091C430.836 405.72 439.015 414.291 447.083 422.747L449.629 425.413C453.784 420.798 457.854 415.691 461.829 410.057ZM483.018 433.155C476.133 425.64 469.162 418.031 462.116 410.37C458.141 416.001 454.074 421.102 449.918 425.718C459.008 435.244 467.956 444.619 476.756 453.767C480.995 449.688 485.119 445.047 489.12 439.808L483.018 433.155ZM1080.38 105.485C1081.61 105.433 1082.84 105.382 1084.07 105.332C1082.68 105.329 1081.3 105.326 1079.92 105.324C1078.65 105.355 1077.39 105.386 1076.12 105.419C1077.54 105.44 1078.96 105.462 1080.38 105.485ZM1067.38 106.064C1069.36 105.969 1071.34 105.876 1073.34 105.786C1071.04 105.755 1068.76 105.726 1066.47 105.697C1064.51 105.757 1062.57 105.826 1060.62 105.895C1062.87 105.949 1065.12 106.005 1067.38 106.064ZM1055.2 106.733C1057.5 106.595 1059.81 106.464 1062.14 106.34C1059.4 106.271 1056.67 106.205 1053.94 106.142C1051.58 106.234 1049.22 106.33 1046.86 106.432C1049.63 106.529 1052.41 106.63 1055.2 106.733ZM1043.62 107.491C1046.08 107.313 1048.54 107.145 1051.02 106.986C1047.97 106.875 1044.92 106.769 1041.89 106.667C1039.36 106.79 1036.85 106.922 1034.34 107.063C1037.43 107.204 1040.51 107.342 1043.62 107.491ZM1032.51 108.366C1035.07 108.146 1037.64 107.939 1040.23 107.744C1036.92 107.586 1033.61 107.428 1030.34 107.284C1027.71 107.441 1025.1 107.61 1022.49 107.79C1025.82 107.975 1029.16 108.167 1032.51 108.366ZM1022.04 109.365C1024.63 109.101 1027.22 108.851 1029.83 108.613C1026.3 108.407 1022.8 108.214 1019.29 108.022C1016.65 108.213 1014.03 108.418 1011.41 108.636C1014.94 108.87 1018.49 109.113 1022.04 109.365ZM1011.9 110.499C1014.48 110.187 1017.07 109.892 1019.68 109.612C1016.03 109.357 1012.39 109.101 1008.78 108.863C1006.11 109.096 1003.46 109.344 1000.82 109.606C1004.5 109.891 1008.2 110.192 1011.9 110.499ZM1002.24 111.754C1004.77 111.398 1007.32 111.06 1009.88 110.74C1006.06 110.428 1002.26 110.128 998.479 109.839C995.873 110.109 993.281 110.395 990.704 110.697C994.534 111.036 998.381 111.388 1002.24 111.754ZM992.911 113.157C995.423 112.751 997.951 112.365 1000.49 111.997C996.542 111.628 992.611 111.271 988.698 110.927C986.103 111.243 983.524 111.576 980.96 111.926C984.925 112.322 988.908 112.732 992.911 113.157ZM983.962 114.724C986.44 114.263 988.935 113.825 991.447 113.41C987.341 112.977 983.256 112.561 979.192 112.161C976.619 112.521 974.061 112.901 971.518 113.301C975.647 113.758 979.795 114.233 983.962 114.724ZM975.326 116.444C977.747 115.933 980.184 115.445 982.639 114.98C978.418 114.484 974.218 114.006 970.037 113.545C967.515 113.95 965.009 114.376 962.518 114.822C966.767 115.344 971.037 115.885 975.326 116.444ZM966.992 118.318C969.361 117.754 971.746 117.213 974.147 116.696C969.807 116.136 965.49 115.594 961.195 115.072C958.709 115.527 956.24 116.005 953.787 116.504C958.165 117.088 962.566 117.692 966.992 118.318ZM555.124 484.465C546.299 474.58 537.296 464.416 528.129 454.054C524.504 459.772 520.727 464.846 516.81 469.313C525.818 479.052 534.655 488.524 543.3 497.649C547.418 493.946 551.361 489.566 555.124 484.465ZM582.045 514.303C573.363 504.811 564.48 494.945 555.408 484.784C551.648 489.876 547.705 494.253 543.592 497.956C552.418 507.268 561.048 516.215 569.457 524.711C573.859 521.99 578.058 518.545 582.045 514.303ZM608.308 542.464C599.876 533.635 591.209 524.32 582.326 514.613C578.348 518.847 574.158 522.297 569.764 525.021C578.308 533.646 586.625 541.807 594.701 549.402C599.471 547.892 604.012 545.601 608.308 542.464ZM633.607 568.114C625.528 560.232 617.185 551.753 608.601 542.771C604.322 545.906 599.798 548.205 595.049 549.732C603.205 557.393 611.109 564.477 618.743 570.898C623.958 570.809 628.917 569.908 633.607 568.114ZM657.56 590.33C649.963 583.703 642.082 576.372 633.934 568.432C629.291 570.232 624.383 571.162 619.22 571.3C626.84 577.686 634.187 583.41 641.247 588.367C644.763 589.288 648.178 589.911 651.479 590.193C653.549 590.371 655.576 590.416 657.56 590.33ZM679.561 608.078C672.668 603.035 665.473 597.216 657.999 590.715C655.866 590.83 653.682 590.792 651.447 590.6C648.454 590.345 645.371 589.817 642.206 589.036C655.783 598.468 668.282 605.038 679.561 608.078ZM343.622 256.839C336.072 249.709 328.492 242.726 320.88 235.888C315.04 240.538 309.354 245.28 303.81 250.102C312.199 257.508 320.55 265.112 328.862 272.87L329.186 272.543C333.864 267.193 338.676 261.958 343.622 256.839ZM367.957 280.376C359.987 272.494 351.971 264.73 343.918 257.121C338.972 262.237 334.161 267.469 329.485 272.816L329.479 272.827L329.16 273.149C337.707 281.128 346.205 289.274 354.655 297.538C356.862 294.929 359.074 292.291 361.296 289.584C363.479 286.475 365.699 283.405 367.957 280.376ZM393.603 306.287C385.209 297.639 376.756 289.082 368.25 280.666C366.003 283.678 363.795 286.731 361.623 289.826L361.614 289.837C359.381 292.555 357.163 295.205 354.944 297.822C363.681 306.376 372.357 315.053 380.967 323.814C385.114 318.343 389.261 312.634 393.411 306.623C393.474 306.51 393.538 306.398 393.603 306.287ZM419.583 333.521C411.09 324.474 402.526 315.481 393.899 306.589C393.851 306.669 393.804 306.749 393.758 306.83L393.75 306.847C389.585 312.886 385.421 318.615 381.257 324.106C390.154 333.162 398.979 342.305 407.721 351.478C411.704 345.847 415.656 339.85 419.583 333.521ZM446.15 362.225C437.477 352.733 428.712 343.249 419.87 333.825C415.946 340.155 411.991 346.148 408.008 351.78C417.028 361.249 425.96 370.753 434.794 380.231C438.635 374.647 442.421 368.645 446.15 362.225ZM473.16 392.097C464.355 382.272 455.446 372.4 446.44 362.541C442.711 368.957 438.923 374.956 435.078 380.538C444.184 390.311 453.187 400.062 462.067 409.715C465.85 404.33 469.547 398.458 473.16 392.097ZM500.459 422.758C491.576 412.735 482.57 402.602 473.447 392.418C469.834 398.775 466.137 404.646 462.354 410.031C469.417 417.712 476.411 425.344 483.317 432.879L489.367 439.478C493.175 434.455 496.877 428.901 500.459 422.758ZM519.289 444.051C513.176 437.133 506.988 430.132 500.743 423.082C497.164 429.219 493.462 434.771 489.654 439.791C498.763 449.731 507.726 459.493 516.52 469C520.44 464.534 524.217 459.456 527.845 453.729C525.009 450.52 522.157 447.294 519.289 444.051ZM1109.23 105.025C1110.59 104.964 1111.96 104.903 1113.33 104.842L1109.18 104.873L1105.04 105.005L1106.74 105.014L1109.23 105.025ZM1094.65 105.714C1096.82 105.605 1098.99 105.499 1101.18 105.396L1094.21 105.367C1092.07 105.443 1089.94 105.522 1087.81 105.602C1090.08 105.639 1092.36 105.676 1094.65 105.714ZM1081.34 106.455C1083.83 106.304 1086.33 106.16 1088.83 106.024C1086.01 105.978 1083.2 105.934 1080.4 105.892C1077.89 105.996 1075.38 106.104 1072.89 106.217C1075.7 106.294 1078.51 106.372 1081.34 106.455ZM1068.85 107.27C1071.49 107.081 1074.14 106.901 1076.81 106.73C1073.66 106.641 1070.51 106.555 1067.39 106.472C1064.71 106.604 1062.04 106.745 1059.38 106.894C1062.53 107.015 1065.68 107.14 1068.85 107.27ZM1057.22 108.183C1059.91 107.953 1062.61 107.736 1065.33 107.531C1061.94 107.397 1058.57 107.267 1055.22 107.141C1052.47 107.305 1049.75 107.48 1047.03 107.666C1050.42 107.835 1053.81 108.005 1057.22 108.183ZM1046.1 109.213C1048.79 108.94 1051.49 108.681 1054.2 108.438C1050.67 108.255 1047.14 108.071 1043.64 107.901C1040.87 108.102 1038.11 108.316 1035.37 108.542C1038.93 108.758 1042.51 108.982 1046.1 109.213ZM1035.67 110.379C1038.35 110.057 1041.04 109.753 1043.75 109.466C1039.99 109.225 1036.26 109.001 1032.53 108.78C1029.82 109.015 1027.12 109.266 1024.43 109.532C1028.15 109.802 1031.92 110.092 1035.67 110.379ZM1025.72 111.67C1028.33 111.305 1030.96 110.958 1033.6 110.631C1029.74 110.338 1025.89 110.051 1022.07 109.776C1019.35 110.057 1016.64 110.356 1013.96 110.671C1017.86 110.993 1021.78 111.323 1025.72 111.67ZM1016.19 113.108C1018.76 112.689 1021.34 112.293 1023.94 111.92C1019.91 111.567 1015.92 111.24 1011.93 110.912C1009.3 111.23 1006.68 111.568 1004.08 111.926C1008.09 112.307 1012.13 112.701 1016.19 113.108ZM1007.05 114.71C1009.57 114.239 1012.1 113.791 1014.64 113.364C1010.5 112.95 1006.39 112.551 1002.29 112.167C999.679 112.532 997.088 112.921 994.512 113.332C998.674 113.776 1002.85 114.235 1007.05 114.71ZM998.347 116.47C1000.79 115.945 1003.25 115.446 1005.73 114.971C1001.45 114.489 997.2 114.023 992.965 113.573C990.409 113.989 987.869 114.426 985.346 114.885C989.656 115.394 993.99 115.922 998.347 116.47ZM989.912 118.398C992.307 117.817 994.719 117.261 997.147 116.731C992.75 116.183 988.375 115.653 984.023 115.141C981.522 115.607 979.039 116.096 976.575 116.607C980.999 117.185 985.444 117.782 989.912 118.398ZM981.81 120.497C984.134 119.858 986.476 119.246 988.836 118.662C984.333 118.042 979.852 117.443 975.392 116.863C972.955 117.378 970.534 117.918 968.128 118.485C972.667 119.133 977.227 119.804 981.81 120.497ZM593.174 499.443C584.28 489.147 575.191 478.547 565.93 467.72C562.675 473.986 559.248 479.546 555.655 484.451C564.738 494.626 573.633 504.503 582.32 514.004C586.137 509.894 589.759 505.06 593.174 499.443ZM620.353 530.575C611.606 520.684 602.634 510.388 593.459 499.773C590.043 505.379 586.421 510.207 582.604 514.314C591.504 524.042 600.192 533.376 608.641 542.223C612.774 539.149 616.686 535.285 620.353 530.575ZM646.875 559.973C638.374 550.768 629.621 541.043 620.635 530.891C616.967 535.592 613.064 539.453 608.934 542.533C617.547 551.543 625.915 560.048 634.017 567.953C638.564 566.156 642.857 563.524 646.875 559.973ZM672.381 586.719C664.25 578.513 655.838 569.669 647.159 560.28C643.153 563.823 638.876 566.46 634.347 568.272C642.553 576.266 650.488 583.64 658.128 590.296C663.168 590.006 667.924 588.841 672.381 586.719ZM696.472 609.832C688.852 602.954 680.916 595.319 672.694 587.029C668.274 589.156 663.558 590.345 658.567 590.681C666.21 597.32 673.563 603.247 680.595 608.345C684.019 609.206 687.331 609.748 690.519 609.926C692.551 610.041 694.535 610.01 696.472 609.832ZM718.519 628.193C711.625 623.004 704.404 616.97 696.879 610.199C694.807 610.41 692.679 610.455 690.496 610.334C687.592 610.17 684.59 609.714 681.496 608.988C695.071 618.727 707.464 625.369 718.519 628.193ZM359.522 241.204C352.724 234.708 345.9 228.333 339.05 222.079C332.953 226.507 327.004 231.025 321.205 235.633C328.803 242.457 336.37 249.429 343.906 256.549C348.972 251.314 354.169 246.196 359.522 241.204ZM381.724 262.901C374.455 255.651 367.15 248.501 359.815 241.489C354.465 246.474 349.268 251.595 344.202 256.828C352.244 264.426 360.245 272.176 368.201 280.046C372.571 274.183 377.079 268.468 381.724 262.901ZM405.379 286.955C397.638 278.927 389.844 271.002 382.011 263.189C377.37 268.755 372.865 274.47 368.497 280.333C376.992 288.741 385.432 297.288 393.819 305.923C397.54 299.428 401.393 293.105 405.379 286.955ZM430.466 313.466C422.26 304.648 413.995 295.894 405.669 287.257C401.685 293.405 397.833 299.728 394.111 306.227C402.744 315.119 411.311 324.115 419.806 333.165C421.721 330.071 423.629 326.922 425.529 323.656C427.142 320.208 428.789 316.819 430.466 313.466ZM456.852 342.276C448.234 332.726 439.532 323.214 430.761 313.785C429.111 317.091 427.481 320.438 425.891 323.842L425.885 323.851L425.882 323.857C423.962 327.16 422.031 330.344 420.096 333.47C428.933 342.89 437.695 352.368 446.365 361.855C449.916 355.724 453.411 349.202 456.852 342.276ZM483.44 372.11C474.767 362.265 465.999 352.411 457.145 342.597C453.704 349.524 450.205 356.039 446.655 362.17C455.661 372.03 464.57 381.901 473.372 391.727C476.81 385.647 480.168 379.12 483.44 372.11ZM510.553 403.176C501.725 392.978 492.782 382.716 483.736 372.443C480.461 379.45 477.1 385.971 473.662 392.048C482.786 402.232 491.792 412.365 500.674 422.388C504.076 416.521 507.369 410.117 510.553 403.176ZM538.022 435.098C529.099 424.681 520.035 414.133 510.849 403.518C507.661 410.451 504.365 416.849 500.961 422.712C507.235 429.796 513.454 436.832 519.596 443.781C522.436 446.996 525.262 450.193 528.074 453.374C531.527 447.883 534.845 441.803 538.022 435.098ZM555.626 455.67C549.918 448.996 544.143 442.242 538.314 435.439C535.134 442.136 531.814 448.21 528.358 453.695C537.531 464.069 546.54 474.241 555.374 484.132C558.964 479.224 562.391 473.658 565.643 467.384C562.325 463.507 558.986 459.602 555.626 455.67ZM1142.35 104.161L1147.62 103.883C1146.1 103.921 1144.58 103.958 1143.06 103.992C1141.33 104.069 1139.61 104.142 1137.89 104.213C1139.37 104.198 1140.86 104.181 1142.35 104.161ZM1124.97 105.091C1127.52 104.952 1130.08 104.813 1132.65 104.675C1130.16 104.7 1127.68 104.724 1125.2 104.747C1122.7 104.852 1120.2 104.957 1117.71 105.063C1120.12 105.072 1122.54 105.082 1124.97 105.091ZM1109.59 105.973C1112.42 105.8 1115.27 105.633 1118.13 105.47C1115.16 105.459 1112.2 105.446 1109.24 105.433C1106.43 105.557 1103.63 105.687 1100.84 105.82L1108.9 105.961L1109.59 105.973ZM1095.69 106.882C1098.61 106.676 1101.54 106.479 1104.49 106.291C1101.2 106.234 1097.93 106.177 1094.66 106.122C1091.74 106.271 1088.83 106.427 1085.94 106.59C1089.18 106.685 1092.43 106.783 1095.69 106.882ZM1082.89 107.864C1085.82 107.619 1088.76 107.387 1091.72 107.167C1088.25 107.061 1084.8 106.959 1081.36 106.86C1078.4 107.037 1075.46 107.225 1072.54 107.422C1075.97 107.566 1079.43 107.713 1082.89 107.864ZM1071.17 108.943C1074.04 108.658 1076.92 108.388 1079.81 108.134C1076.15 107.976 1072.5 107.827 1068.87 107.678C1065.96 107.886 1063.06 108.108 1060.18 108.344C1063.83 108.539 1067.49 108.737 1071.17 108.943ZM1060.06 110.14C1062.86 109.811 1065.68 109.5 1068.52 109.207C1064.74 108.998 1060.98 108.788 1057.24 108.593C1054.35 108.838 1051.49 109.1 1048.64 109.38C1052.43 109.627 1056.23 109.879 1060.06 110.14ZM1049.68 111.487C1052.42 111.106 1055.18 110.745 1057.96 110.404C1053.99 110.135 1050.05 109.876 1046.12 109.624C1043.32 109.909 1040.54 110.213 1037.77 110.536C1041.72 110.841 1045.7 111.162 1049.68 111.487ZM1039.85 112.965C1042.49 112.534 1045.15 112.128 1047.84 111.745C1043.77 111.418 1039.73 111.099 1035.7 110.789C1032.96 111.118 1030.24 111.468 1027.54 111.84C1031.62 112.203 1035.73 112.578 1039.85 112.965ZM1030.48 114.598C1033.03 114.116 1035.61 113.658 1038.2 113.223C1034.03 112.833 1029.88 112.454 1025.75 112.086C1023.09 112.46 1020.44 112.856 1017.81 113.275C1022.02 113.703 1026.24 114.145 1030.48 114.598ZM1021.6 116.404C1024.1 115.864 1026.61 115.35 1029.13 114.862C1024.81 114.401 1020.51 113.954 1016.23 113.522C1013.62 113.946 1011.02 114.395 1008.45 114.868C1012.81 115.363 1017.2 115.875 1021.6 116.404ZM1013.07 118.378C1015.5 117.781 1017.93 117.212 1020.39 116.67C1015.94 116.138 1011.52 115.624 1007.11 115.126C1004.59 115.603 1002.08 116.103 999.589 116.627C1004.06 117.194 1008.56 117.777 1013.07 118.378ZM1004.9 120.525C1007.24 119.869 1009.61 119.242 1011.99 118.645C1007.44 118.041 1002.91 117.454 998.407 116.886C995.939 117.418 993.489 117.976 991.057 118.559C995.647 119.193 1000.26 119.848 1004.9 120.525ZM997.038 122.85C999.311 122.133 1001.6 121.447 1003.91 120.792C999.244 120.113 994.599 119.456 989.981 118.82C987.587 119.404 985.213 120.014 982.857 120.652C987.558 121.362 992.285 122.095 997.038 122.85ZM630.476 514.171C621.478 503.433 612.274 492.367 602.884 481.055C600.008 487.91 596.937 494.009 593.677 499.406C602.864 510.038 611.844 520.345 620.606 530.248C624.119 525.687 627.414 520.351 630.476 514.171ZM658.008 546.689C649.157 536.373 640.067 525.618 630.763 514.515C627.698 520.678 624.4 526.008 620.887 530.564C629.89 540.742 638.661 550.484 647.176 559.706C651.042 556.236 654.658 551.916 658.008 546.689ZM684.854 577.391C676.264 567.792 667.401 557.634 658.286 547.014C654.937 552.229 651.324 556.54 647.461 560.011C656.168 569.434 664.606 578.306 672.762 586.533C677.082 584.415 681.114 581.392 684.854 577.391ZM710.644 605.314C702.438 596.763 693.929 587.526 685.129 577.701C681.401 581.688 677.377 584.716 673.072 586.849C681.352 595.193 689.337 602.871 697 609.774C701.864 609.26 706.419 607.805 710.644 605.314ZM734.924 629.373C727.258 622.235 719.256 614.281 710.936 605.621C706.746 608.107 702.229 609.585 697.407 610.145C705.104 617.059 712.48 623.196 719.509 628.446C722.709 629.204 725.794 629.64 728.762 629.726C730.876 629.787 732.93 629.67 734.924 629.373ZM757.072 648.395C750.163 643.045 742.9 636.787 735.305 629.729C733.189 630.064 731.004 630.198 728.75 630.131C726.035 630.053 723.22 629.677 720.315 629.04C733.922 639.107 746.229 645.815 757.072 648.395ZM376.309 226.35C370.211 220.462 364.094 214.671 357.958 208.976C351.615 213.167 345.43 217.458 339.389 221.835C346.223 228.077 353.033 234.442 359.818 240.929C365.171 235.946 370.668 231.086 376.309 226.35ZM396.47 246.222C389.875 239.594 383.251 233.061 376.601 226.637C370.961 231.369 365.465 236.227 360.113 241.21C367.435 248.214 374.727 255.352 381.986 262.589C386.673 256.982 391.501 251.526 396.47 246.222ZM418.15 268.424C411.056 261.027 403.924 253.711 396.757 246.509C391.79 251.815 386.962 257.271 382.273 262.876C390.094 270.677 397.872 278.588 405.606 286.608C409.652 280.372 413.834 274.31 418.15 268.424ZM441.357 293.055C433.763 284.86 426.12 276.74 418.437 268.723C414.121 274.611 409.94 280.672 405.895 286.906C414.207 295.532 422.461 304.272 430.658 313.078C434.096 306.212 437.658 299.533 441.357 293.055ZM466.12 320.229C458.023 311.207 449.864 302.243 441.647 293.368C437.951 299.849 434.389 306.528 430.953 313.394C439.724 322.823 448.426 332.336 457.045 341.885C457.246 341.484 457.446 341.096 457.644 340.694C460.345 333.662 463.192 326.879 466.12 320.229ZM492.357 349.885C483.793 340.071 475.14 330.283 466.418 320.561C463.516 327.155 460.692 333.883 458.018 340.852L458.015 340.864L458.012 340.866C457.788 341.323 457.561 341.756 457.337 342.207C466.188 352.018 474.953 361.863 483.624 371.706C485.702 367.239 487.751 362.595 489.76 357.736C490.601 355.075 491.482 352.489 492.357 349.885ZM519.507 381.379C510.659 371.008 501.713 360.609 492.667 350.241C491.82 352.77 490.962 355.279 490.147 357.865L490.141 357.879C488.104 362.805 486.026 367.515 483.919 372.039C492.966 382.312 501.908 392.573 510.737 402.772C513.762 396.147 516.689 389.023 519.507 381.379ZM546.873 413.748C537.97 403.139 528.947 392.447 519.809 381.732C516.987 389.37 514.06 396.489 511.032 403.11C520.219 413.728 529.285 424.277 538.211 434.696C541.227 428.289 544.118 421.317 546.873 413.748ZM574.64 447.024C565.628 436.18 556.467 425.186 547.174 414.11C544.416 421.667 541.523 428.637 538.504 435.038C544.373 441.889 550.185 448.686 555.93 455.406C559.256 459.296 562.56 463.16 565.843 466.996C568.937 460.991 571.868 454.341 574.64 447.024ZM592.026 467.975C586.393 461.181 580.696 454.312 574.938 447.383C572.163 454.691 569.227 461.336 566.133 467.335C575.398 478.165 584.493 488.774 593.393 499.076C596.65 493.676 599.718 487.568 602.588 480.702C599.094 476.492 595.574 472.25 592.026 467.975ZM1207.15 101.122C1212.71 100.572 1218.3 99.9649 1223.92 99.299C1219.42 99.6951 1214.93 100.06 1210.46 100.393C1205.57 100.879 1200.7 101.326 1195.85 101.736C1199.6 101.548 1203.37 101.344 1207.15 101.122ZM1183.74 102.296C1186.74 102.07 1189.75 101.833 1192.76 101.584C1190.41 101.725 1188.07 101.861 1185.73 101.991C1183.03 102.183 1180.33 102.365 1177.64 102.54C1179.67 102.463 1181.7 102.382 1183.74 102.296ZM1160.86 103.886C1164.4 103.654 1167.97 103.416 1171.54 103.171C1168.48 103.278 1165.43 103.38 1162.39 103.475C1159.09 103.663 1155.81 103.846 1152.54 104.024C1155.31 103.982 1158.08 103.936 1160.86 103.886ZM1141.56 105.126C1144.38 104.944 1147.2 104.762 1150.04 104.58L1152.34 104.434C1149 104.484 1145.68 104.529 1142.37 104.569L1138.8 104.758L1132.13 105.111C1135.26 105.119 1138.41 105.124 1141.56 105.126ZM1125.04 106.24C1128.5 105.995 1131.97 105.756 1135.47 105.525C1131.96 105.517 1128.47 105.508 1124.99 105.496C1121.59 105.68 1118.21 105.869 1114.85 106.064C1118.24 106.122 1121.63 106.18 1125.04 106.24ZM1110.49 107.345C1113.8 107.073 1117.13 106.814 1120.48 106.567C1116.84 106.506 1113.21 106.443 1109.6 106.38C1106.3 106.579 1103.01 106.789 1099.74 107.009C1103.31 107.12 1106.89 107.232 1110.49 107.345ZM1097.38 108.51C1100.56 108.2 1103.76 107.916 1106.98 107.64C1103.21 107.522 1099.45 107.405 1095.71 107.29C1092.52 107.516 1089.35 107.755 1086.2 108.008C1089.91 108.17 1093.64 108.338 1097.38 108.51ZM1085.49 109.773C1088.51 109.425 1091.55 109.097 1094.6 108.788C1090.69 108.612 1086.79 108.44 1082.91 108.272C1079.86 108.528 1076.82 108.803 1073.8 109.096C1077.68 109.317 1081.57 109.54 1085.49 109.773ZM1074.39 111.156C1077.28 110.762 1080.19 110.391 1083.12 110.043C1079.13 109.807 1075.15 109.575 1071.19 109.354C1068.22 109.65 1065.26 109.966 1062.32 110.301C1066.33 110.58 1070.35 110.861 1074.39 111.156ZM1064.07 112.692C1066.86 112.246 1069.66 111.825 1072.49 111.429C1068.34 111.129 1064.2 110.837 1060.09 110.554C1057.23 110.894 1054.39 111.257 1051.56 111.642C1055.71 111.982 1059.88 112.332 1064.07 112.692ZM1054.29 114.374C1056.98 113.872 1059.68 113.407 1062.41 112.959C1058.16 112.594 1053.93 112.241 1049.72 111.9C1046.97 112.283 1044.24 112.689 1041.53 113.12C1045.76 113.522 1050.03 113.949 1054.29 114.374ZM1045.21 116.22C1047.76 115.667 1050.32 115.142 1052.91 114.647C1048.55 114.216 1044.2 113.786 1039.88 113.378C1037.21 113.811 1034.56 114.269 1031.92 114.753C1036.33 115.228 1040.76 115.717 1045.21 116.22ZM1036.51 118.246C1038.98 117.63 1041.47 117.046 1043.98 116.492C1039.48 115.985 1034.99 115.493 1030.53 115.014C1027.96 115.5 1025.41 116.013 1022.87 116.553C1027.4 117.1 1031.94 117.665 1036.51 118.246ZM1028.2 120.448C1030.58 119.77 1032.99 119.127 1035.41 118.516C1030.81 117.932 1026.22 117.367 1021.67 116.82C1019.17 117.363 1016.69 117.934 1014.22 118.533C1018.86 119.151 1023.52 119.79 1028.2 120.448ZM1020.29 122.839C1022.58 122.098 1024.89 121.392 1027.21 120.721C1022.5 120.06 1017.81 119.419 1013.14 118.797C1010.73 119.394 1008.33 120.021 1005.96 120.677C1010.71 121.376 1015.49 122.096 1020.29 122.839ZM1012.76 125.428C1014.97 124.624 1017.2 123.855 1019.45 123.12C1014.6 122.374 1009.77 121.65 1004.97 120.947C1002.63 121.602 1000.31 122.288 998.014 123.005C1002.9 123.786 1007.82 124.598 1012.76 125.428ZM667.1 528.603C657.973 517.4 648.629 505.844 639.086 494.021C636.592 501.507 633.88 508.189 630.958 514.116C640.274 525.23 649.375 536 658.232 546.33C661.435 541.273 664.396 535.386 667.1 528.603ZM695.062 562.591C686.088 551.819 676.858 540.578 667.396 528.962C664.686 535.73 661.719 541.606 658.513 546.655C667.645 557.298 676.525 567.479 685.129 577.098C688.723 573.191 692.037 568.378 695.062 562.591ZM722.31 594.69C713.605 584.667 704.611 574.047 695.344 562.927C692.316 568.699 689.001 573.501 685.408 577.405C694.233 587.262 702.765 596.528 710.994 605.101C715.081 602.627 718.858 599.183 722.31 594.69ZM748.439 623.853C740.141 614.935 731.517 605.285 722.583 595C719.133 599.478 715.362 602.92 711.286 605.406C719.661 614.126 727.714 622.128 735.423 629.301C740.107 628.529 744.452 626.741 748.439 623.853ZM772.971 648.932C765.248 641.512 757.155 633.214 748.72 624.158C744.759 627.04 740.446 628.842 735.796 629.649C743.557 636.853 750.964 643.205 758.001 648.61C760.906 649.245 763.71 649.581 766.399 649.595C768.67 649.606 770.861 649.385 772.971 648.932ZM795.277 668.651C788.337 663.134 781.013 656.639 773.322 649.268C771.1 649.767 768.793 650.011 766.399 650C763.934 649.988 761.374 649.698 758.73 649.167C772.394 659.578 784.638 666.352 795.277 668.651ZM393.979 212.297C388.549 206.992 383.105 201.74 377.646 196.584C371.049 200.54 364.602 204.593 358.305 208.743C364.43 214.429 370.535 220.209 376.621 226.086C382.26 221.365 388.046 216.769 393.979 212.297ZM412.184 230.392C406.233 224.373 400.264 218.438 394.275 212.584C388.342 217.054 382.555 221.65 376.914 226.373C383.552 232.789 390.163 239.306 396.749 245.923C401.75 240.594 406.895 235.417 412.184 230.392ZM431.949 250.743C425.482 243.97 418.988 237.284 412.468 230.684C407.181 235.708 402.037 240.884 397.036 246.213C404.191 253.403 411.311 260.706 418.394 268.091C422.774 262.135 427.286 256.346 431.949 250.743ZM453.291 273.49C446.308 265.927 439.285 258.435 432.231 251.041C427.57 256.644 423.058 262.434 418.678 268.39C426.353 276.395 433.984 284.501 441.567 292.684C445.341 286.088 449.244 279.687 453.291 273.49ZM476.228 298.747C468.726 290.362 461.175 282.033 453.575 273.8C449.531 279.997 445.628 286.401 441.857 292.997C450.065 301.858 458.213 310.811 466.3 319.821C469.489 312.596 472.775 305.538 476.228 298.747ZM500.746 326.563C492.733 317.347 484.657 308.17 476.518 299.074C473.068 305.865 469.782 312.926 466.596 320.154C475.309 329.861 483.951 339.638 492.503 349.437C495.132 341.598 497.868 333.952 500.746 326.563ZM526.814 356.958C518.308 346.917 509.718 336.888 501.047 326.911C498.172 334.302 495.439 341.951 492.816 349.793C501.865 360.164 510.817 370.566 519.668 380.943C520.414 378.916 521.152 376.867 521.884 374.766C523.454 368.686 525.11 362.776 526.814 356.958ZM554.418 389.921C545.432 379.077 536.328 368.195 527.127 357.331C525.451 363.063 523.821 368.887 522.274 374.878L522.268 374.892C521.511 377.07 520.744 379.197 519.972 381.296C529.107 392.011 538.131 402.7 547.033 413.309C549.462 406.609 551.789 399.454 554.002 391.804C554.137 391.164 554.28 390.547 554.418 389.921ZM582.24 423.774C573.205 412.698 564.035 401.526 554.748 390.317C554.63 390.84 554.513 391.359 554.401 391.89L554.395 391.907C552.154 399.652 549.797 406.894 547.338 413.668C556.631 424.747 565.792 435.744 574.806 446.588C577.433 439.604 579.912 432.006 582.24 423.774ZM610.406 458.486C601.274 447.188 591.986 435.724 582.553 424.159C580.222 432.382 577.737 439.969 575.105 446.95C580.914 453.94 586.659 460.861 592.339 467.714C595.841 471.935 599.316 476.124 602.766 480.28C605.493 473.716 608.041 466.46 610.406 458.486ZM628.513 480.92C622.652 473.653 616.717 466.296 610.716 458.87C608.348 466.833 605.794 474.078 603.062 480.636C612.458 491.954 621.668 503.028 630.671 513.772C633.587 507.839 636.293 501.142 638.779 493.642C635.383 489.434 631.961 485.193 628.513 480.92ZM1261.38 94.7552C1267.54 93.5984 1273.71 92.3154 1279.89 90.8716C1274.68 91.8284 1269.48 92.7153 1264.29 93.5324C1258.45 94.6576 1252.61 95.6593 1246.8 96.5693C1251.65 96.0124 1256.51 95.4077 1261.38 94.7552ZM1236.06 97.7346C1240.9 97.0687 1245.76 96.3377 1250.63 95.5417C1246.67 96.0813 1242.73 96.5865 1238.8 97.0572C1234.48 97.6523 1230.17 98.2044 1225.87 98.7134C1229.26 98.4072 1232.65 98.081 1236.06 97.7346ZM1210.4 99.9907C1211.3 99.9008 1212.2 99.8099 1213.1 99.718L1212.41 99.7812C1211.36 99.8826 1210.31 99.9812 1209.26 100.077C1209.64 100.048 1210.02 100.019 1210.4 99.9907ZM1180.87 103.435C1186.15 103.02 1191.46 102.574 1196.8 102.098C1192.45 102.318 1188.11 102.519 1183.79 102.7C1179.04 103.056 1174.31 103.394 1169.61 103.714C1173.35 103.631 1177.11 103.539 1180.87 103.435ZM1159.16 105.1L1162.26 104.865C1165.89 104.593 1169.53 104.316 1173.2 104.035C1169.08 104.133 1164.98 104.218 1160.89 104.291C1157.27 104.526 1153.66 104.758 1150.07 104.988L1147.92 105.126C1151.65 105.122 1155.4 105.113 1159.16 105.1ZM1141.15 106.495C1145.26 106.164 1149.4 105.84 1153.56 105.522C1149.56 105.532 1145.56 105.534 1141.59 105.531C1137.63 105.787 1133.69 106.049 1129.78 106.317C1133.55 106.38 1137.34 106.439 1141.15 106.495ZM1125.77 107.827C1129.49 107.48 1133.24 107.155 1137.01 106.839C1133.01 106.776 1129.03 106.711 1125.07 106.644C1121.41 106.904 1117.77 107.176 1114.16 107.459L1116.36 107.531L1125.77 107.827ZM1112.29 109.199C1115.71 108.822 1119.15 108.467 1122.62 108.134L1116.35 107.936L1110.52 107.752C1107.1 108.032 1103.71 108.329 1100.34 108.645C1104.31 108.825 1108.29 109.009 1112.29 109.199ZM1100.2 110.663C1103.36 110.246 1106.55 109.853 1109.76 109.486C1105.62 109.293 1101.5 109.103 1097.4 108.918C1094.2 109.229 1091.02 109.562 1087.86 109.914C1091.95 110.159 1096.07 110.408 1100.2 110.663ZM1089.11 112.25C1092.07 111.787 1095.05 111.35 1098.06 110.938C1093.86 110.68 1089.68 110.427 1085.52 110.181C1082.46 110.534 1079.41 110.904 1076.39 111.303C1080.61 111.613 1084.85 111.926 1089.11 112.25ZM1078.83 113.995C1081.65 113.477 1084.5 112.988 1087.37 112.529C1083.03 112.199 1078.72 111.879 1074.43 111.567C1071.52 111.965 1068.64 112.389 1065.77 112.839C1070.1 113.214 1074.46 113.599 1078.83 113.995ZM1069.25 115.901C1071.92 115.33 1074.61 114.776 1077.32 114.265C1072.89 113.866 1068.49 113.481 1064.11 113.105C1061.33 113.549 1058.57 114.022 1055.82 114.523C1060.28 114.971 1064.75 115.43 1069.25 115.901ZM1060.32 117.976C1062.85 117.345 1065.41 116.746 1067.99 116.18C1063.42 115.703 1058.87 115.239 1054.34 114.787C1051.71 115.283 1049.1 115.808 1046.51 116.363C1051.09 116.886 1055.69 117.423 1060.32 117.976ZM1051.79 120.235C1054.23 119.535 1056.71 118.881 1059.2 118.249C1054.53 117.696 1049.89 117.158 1045.28 116.636C1042.72 117.191 1040.19 117.777 1037.67 118.393C1042.36 118.99 1047.06 119.604 1051.79 120.235ZM1043.8 122.693C1046.12 121.933 1048.47 121.209 1050.83 120.52C1046.06 119.882 1041.31 119.263 1036.58 118.662C1034.12 119.275 1031.68 119.919 1029.27 120.594C1034.08 121.274 1038.93 121.973 1043.8 122.693ZM1036.17 125.353C1038.41 124.525 1040.67 123.733 1042.95 122.977C1038.03 122.253 1033.14 121.55 1028.27 120.867C1025.9 121.541 1023.55 122.239 1021.22 122.982C1026.18 123.75 1031.16 124.54 1036.17 125.353ZM1028.9 128.206C1031.04 127.313 1033.21 126.457 1035.4 125.64C1030.36 124.823 1025.36 124.03 1020.38 123.261C1018.1 123.998 1015.85 124.768 1013.62 125.571C1018.68 126.423 1023.77 127.301 1028.9 128.206ZM703.11 542.699C693.831 531.006 684.32 518.933 674.594 506.567C672.487 514.725 670.142 522.033 667.568 528.528C677.042 540.159 686.28 551.411 695.266 562.198C698.15 556.612 700.768 550.131 703.11 542.699ZM731.574 578.246C722.451 566.991 713.057 555.24 703.411 543.084C701.063 550.492 698.437 556.959 695.547 562.537C704.832 573.676 713.844 584.32 722.56 594.363C725.872 589.983 728.88 584.636 731.574 578.246ZM759.287 611.827C750.45 601.355 741.301 590.241 731.859 578.599C729.161 584.966 726.147 590.302 722.832 594.673C731.795 604.995 740.449 614.677 748.766 623.618C752.617 620.756 756.13 616.85 759.287 611.827ZM785.817 642.316C777.411 633.007 768.652 622.918 759.557 612.148C756.4 617.148 752.89 621.049 749.047 623.919C757.528 633.03 765.667 641.377 773.431 648.823C777.936 647.775 782.072 645.64 785.817 642.316ZM810.654 668.473C802.854 660.755 794.654 652.092 786.087 642.617C782.365 645.927 778.255 648.079 773.781 649.161C781.616 656.665 789.066 663.246 796.112 668.812C798.689 669.317 801.175 669.57 803.56 669.53C806.032 669.488 808.397 669.135 810.654 668.473ZM833.121 688.913C826.152 683.224 818.768 676.487 810.982 668.801C808.626 669.512 806.154 669.89 803.566 669.934C801.39 669.975 799.134 669.771 796.801 669.357C810.525 680.11 822.697 686.918 833.121 688.913ZM534.566 332.54C526.602 323.113 518.569 313.721 510.475 304.39C507.247 311.503 504.176 318.897 501.217 326.483C509.876 336.449 518.46 346.464 526.955 356.493C529.369 348.272 531.894 340.264 534.566 332.54ZM560.543 363.677C552.07 353.401 543.509 343.131 534.87 332.901C532.201 340.628 529.679 348.639 527.268 356.863C536.458 367.716 545.553 378.583 554.533 389.416C556.413 380.584 558.407 371.984 560.543 363.677ZM588.14 397.508C579.16 386.391 570.065 375.228 560.867 364.071C558.734 372.38 556.74 380.977 554.86 389.812C564.156 401.027 573.331 412.21 582.375 423.295C583.672 418.674 584.926 413.863 586.126 408.834C586.769 404.999 587.449 401.245 588.14 397.508ZM616.752 433.232C607.464 421.553 598.036 409.764 588.476 397.927C587.81 401.549 587.15 405.186 586.528 408.906L586.525 408.92C585.296 414.055 584.016 418.966 582.687 423.68C592.121 435.244 601.411 446.709 610.547 458.009C612.782 450.411 614.854 442.165 616.752 433.232ZM645.403 469.456C636.124 457.676 626.679 445.721 617.082 433.645C615.176 442.569 613.101 450.805 610.857 458.394C616.918 465.894 622.911 473.325 628.831 480.662C632.222 484.866 635.588 489.039 638.931 493.18C641.287 486.012 643.448 478.119 645.403 469.456ZM665.085 494.474C658.717 486.377 652.262 478.165 645.724 469.867C643.767 478.515 641.6 486.4 639.235 493.556C648.786 505.39 658.14 516.955 667.272 528.167C669.841 521.66 672.18 514.343 674.278 506.165C671.234 502.296 668.17 498.399 665.085 494.474ZM412.528 199.047C407.716 194.284 402.893 189.581 398.058 184.936C391.223 188.645 384.541 192.455 378.011 196.366C383.461 201.51 388.891 206.754 394.309 212.047C400.239 207.589 406.303 203.249 412.528 199.047ZM428.864 215.457C423.534 210.019 418.187 204.645 412.824 199.337C406.599 203.539 400.531 207.879 394.605 212.337C400.584 218.179 406.542 224.105 412.479 230.113C417.796 225.075 423.258 220.189 428.864 215.457ZM446.773 234.026C440.922 227.862 435.048 221.77 429.151 215.75C423.543 220.482 418.081 225.367 412.766 230.403C419.275 236.994 425.758 243.669 432.213 250.43C436.924 244.785 441.777 239.317 446.773 234.026ZM466.286 254.89C459.905 247.959 453.495 241.103 447.057 234.321C442.059 239.614 437.205 245.083 432.495 250.728C439.54 258.108 446.549 265.588 453.517 273.134C457.635 266.854 461.891 260.773 466.286 254.89ZM487.438 278.221C480.521 270.476 473.564 262.795 466.567 255.195C462.173 261.082 457.917 267.158 453.802 273.444C461.393 281.668 468.935 289.986 476.431 298.362C479.964 291.429 483.632 284.715 487.438 278.221ZM509.537 303.308C502.314 294.991 495.043 286.737 487.725 278.545C483.919 285.04 480.251 291.753 476.721 298.686C484.846 307.771 492.914 316.933 500.915 326.136C503.88 318.552 506.951 311.164 510.183 304.051L509.537 303.308ZM1329.53 75.3027C1329.67 75.2453 1329.81 75.1888 1329.95 75.1333C1329.76 75.208 1329.56 75.2835 1329.37 75.3601L1329.53 75.3027ZM1310.12 82.4126C1313.31 81.3582 1316.51 80.2483 1319.7 79.083C1316.7 80.0551 1313.69 80.9879 1310.69 81.8816C1307.61 82.8613 1304.53 83.798 1301.45 84.6917C1304.33 83.9607 1307.22 83.201 1310.12 82.4126ZM1287.48 89.003C1292.27 87.7802 1297.06 86.4493 1301.85 85.0103C1297.53 86.0972 1293.22 87.119 1288.91 88.0758C1284.37 89.224 1279.84 90.2917 1275.31 91.2792C1279.36 90.5673 1283.41 89.8086 1287.48 89.003ZM1264.17 93.1392C1267 92.5938 1269.83 92.0207 1272.67 91.4198C1270.42 91.8427 1268.18 92.2513 1265.95 92.6455C1263.21 93.1583 1260.48 93.6491 1257.75 94.1179C1259.89 93.8022 1262.03 93.4759 1264.17 93.1392ZM1231.9 99.408C1238.96 98.478 1246.05 97.4332 1253.16 96.2219C1247.47 96.9223 1241.8 97.5595 1236.15 98.1336C1229.73 99.0206 1223.33 99.8042 1216.97 100.505C1221.93 100.175 1226.9 99.8099 1231.9 99.408ZM1202.66 102.709C1209.61 102.029 1216.6 101.291 1223.64 100.447C1218.14 100.847 1212.67 101.207 1207.21 101.526C1201.01 102.141 1194.86 102.692 1188.73 103.206C1193.36 103.06 1198 102.895 1202.66 102.709ZM1177.87 104.965C1183.74 104.454 1189.66 103.935 1195.62 103.381C1190.7 103.555 1185.79 103.709 1180.91 103.843C1175.56 104.266 1170.24 104.674 1164.96 105.068C1169.24 105.044 1173.55 105.009 1177.87 104.965ZM1158 106.719C1162.83 106.279 1167.7 105.846 1172.61 105.421C1168.12 105.46 1163.64 105.487 1159.19 105.505C1154.59 105.849 1150.03 106.2 1145.49 106.558C1149.64 106.617 1153.81 106.671 1158 106.719ZM1141.62 108.318C1145.75 107.885 1149.9 107.472 1154.09 107.078C1149.77 107.024 1145.46 106.966 1141.17 106.903C1137.14 107.23 1133.13 107.573 1129.15 107.933C1133.29 108.061 1137.45 108.189 1141.62 108.318ZM1127.61 109.922C1131.27 109.46 1134.96 109.038 1138.68 108.633C1134.37 108.501 1130.07 108.368 1125.8 108.234C1122.16 108.573 1118.55 108.941 1114.97 109.322C1119.16 109.519 1123.38 109.719 1127.61 109.922ZM1115.29 111.61C1118.6 111.116 1121.94 110.652 1125.3 110.218C1120.95 110.011 1116.62 109.807 1112.31 109.606C1108.97 109.978 1105.65 110.375 1102.35 110.798C1106.65 111.064 1110.96 111.334 1115.29 111.61ZM1104.2 113.427C1107.23 112.883 1110.28 112.373 1113.36 111.894C1108.97 111.615 1104.59 111.341 1100.23 111.073C1097.09 111.487 1093.96 111.917 1090.86 112.388C1095.29 112.727 1099.73 113.073 1104.2 113.427ZM1093.97 115.393C1096.82 114.793 1099.7 114.242 1102.6 113.711C1098.1 113.353 1093.61 113.004 1089.14 112.663C1086.2 113.125 1083.28 113.616 1080.38 114.139C1084.89 114.546 1089.42 114.964 1093.97 115.393ZM1084.59 117.546C1087.26 116.888 1089.96 116.266 1092.68 115.68C1088.05 115.244 1083.45 114.822 1078.87 114.409C1076.08 114.922 1073.31 115.462 1070.56 116.042C1075.22 116.53 1079.89 117.029 1084.59 117.546ZM1075.77 119.865C1078.3 119.142 1080.87 118.476 1083.44 117.827C1078.7 117.308 1074 116.811 1069.3 116.32C1066.68 116.887 1064.08 117.487 1061.5 118.12C1066.23 118.686 1070.99 119.268 1075.77 119.865ZM1067.59 122.394C1069.97 121.609 1072.37 120.863 1074.8 120.155C1069.97 119.552 1065.16 118.966 1060.38 118.396C1057.86 119.024 1055.35 119.679 1052.87 120.379C1057.75 121.032 1062.65 121.703 1067.59 122.394ZM1059.8 125.127C1062.09 124.273 1064.4 123.459 1066.72 122.684C1061.74 121.987 1056.79 121.311 1051.86 120.655C1049.46 121.345 1047.08 122.073 1044.73 122.836C1049.73 123.578 1054.75 124.342 1059.8 125.127ZM1052.43 128.054C1054.6 127.127 1056.8 126.257 1059.02 125.416C1053.95 124.628 1048.9 123.863 1043.88 123.12C1041.58 123.874 1039.3 124.665 1037.03 125.494C1042.14 126.324 1047.27 127.173 1052.43 128.054ZM1045.46 131.212C1047.53 130.215 1049.62 129.26 1051.74 128.347C1046.55 127.466 1041.39 126.613 1036.26 125.781C1034.05 126.598 1031.87 127.453 1029.7 128.347C1034.92 129.274 1040.18 130.233 1045.46 131.212ZM738.56 556.451C729.106 544.235 719.406 531.617 709.478 518.686C707.765 527.555 705.788 535.512 703.56 542.616C713.215 554.787 722.62 566.552 731.752 577.821C734.312 571.667 736.588 564.569 738.56 556.451ZM767.584 593.634C758.297 581.871 748.717 569.58 738.873 556.856C736.893 564.951 734.608 572.032 732.037 578.174C741.496 589.842 750.663 600.977 759.511 611.468C762.536 606.585 765.231 600.664 767.584 593.634ZM795.828 628.779C786.839 617.831 777.515 606.204 767.877 594.004C765.518 601.008 762.814 606.913 759.784 611.792C768.905 622.599 777.69 632.72 786.116 642.054C789.726 638.771 792.967 634.373 795.828 628.779ZM822.815 660.677C814.282 650.958 805.371 640.395 796.098 629.109C793.236 634.678 789.996 639.066 786.389 642.353C795.001 651.885 803.241 660.594 811.076 668.344C815.399 666.992 819.319 664.469 822.815 660.677ZM848.005 687.983C840.112 679.949 831.795 670.902 823.079 660.979C819.597 664.753 815.697 667.282 811.404 668.666C819.333 676.49 826.844 683.328 833.919 689.068C836.137 689.444 838.281 689.605 840.336 689.525C843.036 689.423 845.592 688.909 848.005 687.983ZM870.701 709.221C863.683 703.343 856.216 696.336 848.315 688.302C845.815 689.289 843.16 689.823 840.35 689.932C838.482 690.004 836.542 689.878 834.541 689.576C848.361 700.702 860.481 707.568 870.701 709.221ZM543.38 309.037C535.975 300.274 528.519 291.554 521.008 282.899C517.423 289.689 513.975 296.718 510.665 303.988C518.75 313.305 526.771 322.686 534.724 332.097C537.476 324.161 540.352 316.46 543.38 309.037ZM567.72 338.231C559.776 328.587 551.76 318.963 543.681 309.396C540.656 316.819 537.781 324.52 535.028 332.459C543.658 342.675 552.208 352.931 560.666 363.189C562.885 354.598 565.241 346.289 567.72 338.231ZM593.714 370.17C585.242 359.644 576.681 349.113 568.036 338.613C565.556 346.673 563.2 354.983 560.987 363.577C570.177 374.723 579.261 385.871 588.232 396.979C589.934 387.771 591.76 378.83 593.714 370.17ZM621.309 404.813C612.332 393.437 603.24 382.01 594.038 370.575C592.09 379.24 590.27 388.187 588.571 397.398C598.134 409.239 607.568 421.03 616.858 432.715C617.334 430.473 617.798 428.187 618.25 425.858C619.191 418.668 620.227 411.687 621.309 404.813ZM650.46 442.073C641.003 429.9 631.397 417.603 621.651 405.249C620.592 412.006 619.576 418.86 618.651 425.921L618.649 425.936C618.174 428.381 617.687 430.779 617.188 433.129C626.788 445.204 636.236 457.165 645.518 468.945C647.314 460.925 648.933 452.248 650.371 442.891H650.374C650.4 442.615 650.429 442.343 650.46 442.073ZM679.696 479.913C670.243 467.625 660.611 455.145 650.821 442.535C650.806 442.669 650.791 442.804 650.775 442.94V442.948C649.315 452.446 647.667 461.235 645.842 469.359C652.449 477.743 658.972 486.041 665.404 494.225C668.423 498.065 671.423 501.881 674.404 505.672C676.387 497.873 678.155 489.299 679.696 479.913ZM701.744 508.614C694.618 499.331 687.379 489.899 680.035 480.355C678.485 489.724 676.712 498.286 674.72 506.071C684.455 518.445 693.972 530.526 703.256 542.232C705.475 535.119 707.441 527.142 709.145 518.255L701.744 508.614ZM431.946 186.659C427.701 182.409 423.446 178.204 419.184 174.043C412.112 177.502 405.201 181.07 398.431 184.736C403.256 189.37 408.07 194.064 412.872 198.818C419.081 194.636 425.439 190.583 431.946 186.659ZM446.5 201.438C441.761 196.559 437.009 191.731 432.245 186.954C425.736 190.879 419.377 194.931 413.168 199.11C418.52 204.407 423.855 209.769 429.174 215.196C434.801 210.456 440.577 205.87 446.5 201.438ZM462.615 218.259C457.356 212.692 452.08 207.184 446.787 201.734C440.864 206.166 435.088 210.751 429.461 215.489C435.346 221.497 441.211 227.578 447.054 233.73C452.094 228.397 457.281 223.24 462.615 218.259ZM480.343 237.295C474.55 230.986 468.734 224.74 462.897 218.557C457.558 223.534 452.378 228.695 447.335 234.026C453.764 240.798 460.164 247.643 466.536 254.56C470.994 248.605 475.596 242.85 480.343 237.295ZM499.736 258.714C493.395 251.61 487.024 244.572 480.622 237.599C475.877 243.154 471.275 248.91 466.817 254.867C473.8 262.451 480.745 270.123 487.65 277.85C491.536 271.249 495.569 264.879 499.736 258.714ZM500.164 259.193L500.02 259.032C495.856 265.198 491.823 271.567 487.937 278.175C495.288 286.403 502.591 294.693 509.844 303.044L510.372 303.652C513.682 296.382 517.131 289.354 520.718 282.566C513.907 274.711 507.055 266.92 500.164 259.193ZM122.101 363.155C116.909 368.551 111.916 373.804 107.088 378.899C116.33 383.5 125.591 388.09 134.864 392.545C140.2 388.497 145.68 384.221 151.304 379.714L147.578 377.59C139.089 372.751 130.594 367.911 122.101 363.155ZM137.737 347.115C132.442 352.469 127.33 357.721 122.391 362.854C130.855 367.59 139.321 372.415 147.779 377.237L151.645 379.439C156.968 375.171 162.431 370.711 168.033 366.057C157.953 359.624 147.848 353.264 137.737 347.115ZM153.76 331.213C148.342 336.489 143.098 341.699 138.033 346.817C148.155 352.974 158.272 359.343 168.36 365.784C173.683 361.36 179.141 356.77 184.733 352.015C174.439 344.891 164.107 337.91 153.76 331.213ZM170.205 315.538C164.655 320.714 159.268 325.849 154.059 330.921C164.414 337.626 174.754 344.612 185.055 351.742C190.389 347.207 195.853 342.53 201.445 337.712C191.07 330.08 180.649 322.645 170.205 315.538ZM187.101 300.162C181.403 305.223 175.873 310.254 170.51 315.254C180.956 322.364 191.383 329.804 201.764 337.439C207.117 332.828 212.597 328.093 218.203 323.237C207.877 315.274 197.505 307.544 187.101 300.162ZM204.462 285.13C198.601 290.061 192.941 294.981 187.414 299.886C197.818 307.269 208.193 315.002 218.519 322.964C221.544 320.342 224.608 317.687 227.712 314.999L235.03 308.658C224.882 300.535 214.687 292.659 204.462 285.13ZM222.348 270.522C216.33 275.301 210.476 280.081 204.786 284.863C215.009 292.392 225.2 300.265 235.343 308.385C240.76 303.693 246.294 298.907 251.946 294.028C242.122 285.916 232.249 278.057 222.348 270.522ZM240.744 256.363C234.56 260.98 228.537 265.613 222.675 270.261C232.573 277.793 242.44 285.649 252.259 293.758C257.712 289.052 263.278 284.266 268.959 279.398C259.594 271.461 250.184 263.763 240.744 256.363ZM259.663 242.66C253.298 247.112 247.13 251.604 241.086 256.11C250.514 263.507 259.916 271.2 269.275 279.128C274.768 274.42 280.374 269.641 286.093 264.79C277.317 257.187 268.506 249.787 259.663 242.66ZM279.139 229.522C272.616 233.784 266.213 238.079 260.008 242.413C268.839 249.537 277.641 256.928 286.406 264.523C289.919 261.544 293.475 258.539 297.074 255.51C299.092 253.696 301.132 251.893 303.193 250.1C295.205 243.053 287.184 236.181 279.139 229.522ZM299.137 216.878C292.416 220.965 285.901 225.113 279.498 229.289C287.525 235.937 295.53 242.795 303.503 249.833C309.047 245.008 314.733 240.266 320.576 235.616C313.45 229.223 306.304 222.966 299.137 216.878ZM319.738 204.857C312.85 208.74 306.074 212.664 299.499 216.654C306.654 222.731 313.786 228.977 320.895 235.357C326.694 230.749 332.643 226.232 338.74 221.804C332.423 216.04 326.089 210.385 319.738 204.857ZM340.838 193.401C333.767 197.084 326.879 200.838 320.117 204.644C326.454 210.161 332.776 215.807 339.079 221.557C345.123 217.176 351.308 212.885 357.654 208.692C352.063 203.506 346.458 198.409 340.838 193.401ZM362.527 182.583C355.277 186.056 348.165 189.592 341.223 193.197C346.829 198.196 352.422 203.283 358.001 208.459C364.296 204.307 370.741 200.252 377.336 196.295C372.411 191.65 367.475 187.092 362.527 182.583ZM384.792 172.399C377.351 175.658 370.064 178.99 362.929 182.396C367.862 186.894 372.79 191.444 377.701 196.076C384.231 192.165 390.913 188.354 397.748 184.644C393.437 180.51 389.118 176.429 384.792 172.399ZM407.56 162.826C399.934 165.866 392.516 169.017 385.197 172.221C389.514 176.243 393.821 180.316 398.121 184.44C404.891 180.772 411.805 177.201 418.874 173.739C415.11 170.063 411.339 166.425 407.56 162.826ZM745.79 103.427C607.599 103.243 497.164 127.156 407.976 162.657C411.746 166.25 415.508 169.882 419.264 173.553C504.25 132.05 611.281 105.878 745.79 103.427ZM769.206 103.688C768.496 103.672 767.787 103.657 767.079 103.642C622.649 103.593 508.923 130.247 419.574 173.854C423.827 178.005 428.071 182.2 432.305 186.441C510.312 139.464 609.978 111.082 735.105 104.824C746.267 104.268 757.634 103.889 769.206 103.688ZM785.617 104.078C784.141 104.026 782.672 103.982 781.208 103.943C765.477 104.05 750.116 104.479 735.125 105.229C610.116 111.481 510.541 139.826 432.604 186.736C437.358 191.505 442.101 196.324 446.83 201.194C523.545 143.916 625.172 112.259 754.621 105.261C764.778 104.712 775.115 104.322 785.617 104.078ZM798.009 104.612C795.995 104.526 793.983 104.443 791.962 104.351C779.277 104.575 766.832 105.008 754.644 105.668C625.301 112.661 523.766 144.278 447.117 201.49C452.398 206.928 457.663 212.425 462.911 217.98C537.522 148.532 640.736 113.476 774.139 105.697C781.99 105.24 789.946 104.878 798.009 104.612ZM811.493 105.195C808.809 105.051 806.183 104.956 803.545 104.853C793.595 105.132 783.794 105.542 774.162 106.105C640.862 113.875 537.735 148.899 463.192 218.276C469.02 224.449 474.825 230.685 480.607 236.985C552.263 153.314 656.69 114.724 793.653 106.133C799.538 105.764 805.485 105.451 811.493 105.195ZM823.509 105.967C820.826 105.797 818.131 105.62 815.444 105.444C808.103 105.731 800.842 106.09 793.678 106.538C656.817 115.123 552.472 153.684 480.889 237.286C487.279 244.248 493.64 251.275 499.971 258.366C569.445 155.819 678.241 114.007 823.509 105.967ZM836.189 106.785C833.106 106.564 830.067 106.38 827.019 106.194C680.101 113.757 570.206 155.395 500.255 258.685L500.468 258.923C507.323 266.612 514.14 274.362 520.919 282.173C584.498 162.263 691.558 116.596 836.189 106.785ZM848.493 107.749C845.445 107.503 842.359 107.221 839.329 106.986C693.211 116.355 585.161 161.81 521.209 282.509C528.709 291.155 536.159 299.863 543.555 308.618C600.453 169.525 705.188 119.518 848.493 107.749ZM861.221 108.84C857.774 108.53 854.35 108.243 850.929 107.959C706.479 119.369 600.978 169.149 543.854 308.971C551.924 318.524 559.928 328.131 567.861 337.764C617.414 177.442 719.543 122.655 861.221 108.84ZM874.234 110.049C870.648 109.693 867.081 109.356 863.531 109.038C720.769 122.497 617.9 177.014 568.177 338.145C576.81 348.631 585.365 359.148 593.826 369.662C635.372 186.125 734.545 126.031 874.234 110.049ZM887.226 111.429C883.521 111.027 879.813 110.625 876.131 110.247C735.558 125.925 635.788 185.746 594.153 370.07C603.343 381.491 612.429 392.903 621.395 404.267C654.271 195.743 750.043 129.777 887.226 111.429ZM900.833 112.893C896.846 112.428 892.935 112.032 889 111.616C750.993 129.656 654.656 195.313 621.737 404.704C631.475 417.046 641.075 429.328 650.523 441.493C674.172 206.019 766.336 133.703 900.833 112.893ZM914.393 114.61C910.39 114.104 906.357 113.57 902.38 113.088C767.18 133.609 674.516 205.603 650.882 441.955C660.683 454.576 670.323 467.065 679.788 479.365C680.787 473.234 681.691 466.758 682.497 459.924C699.933 213.149 786.753 137.481 914.393 114.61ZM928.663 116.415C924.335 115.829 920.088 115.321 915.814 114.79C787.617 137.369 700.375 212.644 682.902 459.958L682.899 459.967C682.078 466.95 681.151 473.555 680.127 479.807C687.552 489.454 694.867 498.987 702.068 508.367L709.249 517.721C711.513 505.795 713.313 492.25 714.619 476.951C726.276 220.297 807.793 141.298 928.663 116.415ZM942.944 118.467C938.625 117.844 934.254 117.173 929.966 116.581C808.605 141.181 726.707 219.791 715.026 476.977V476.985C713.706 492.445 711.881 506.122 709.579 518.152C719.515 531.089 729.221 543.718 738.681 555.943C742.618 539.536 745.342 519.042 746.742 493.981C752.801 228.222 828.885 145.521 942.944 118.467ZM957.851 120.649C953.225 119.94 948.661 119.294 944.089 118.637C829.622 145.429 753.217 227.762 747.15 493.995V494.004C745.738 519.237 742.986 539.858 738.996 556.351C748.855 569.092 758.443 581.401 767.742 593.178C774.007 574.205 777.81 547.263 778.869 511.011C779.524 236.485 850.303 149.909 957.851 120.649ZM972.967 123.071C968.275 122.311 963.565 121.527 958.919 120.807C851.01 149.806 779.931 236.02 779.274 511.016V511.022C778.212 547.45 774.369 574.509 768.035 593.551C777.687 605.773 787.026 617.424 796.029 628.391C805.557 609.45 810.761 577.038 810.993 528.04C806.441 245.424 871.877 154.683 972.967 123.071ZM988.678 125.681C983.724 124.828 978.828 124.03 973.929 123.232C872.537 154.597 806.84 244.99 811.398 528.035V528.04C811.165 577.198 805.916 609.72 796.302 628.724C805.598 640.045 814.538 650.643 823.087 660.388C837.124 644.804 844.245 608.471 843.114 545.07C833.551 254.718 893.787 159.697 988.678 125.681ZM1004.73 128.539C999.647 127.618 994.567 126.694 989.542 125.824C894.395 159.605 833.945 254.31 843.522 545.056V545.059C844.653 608.572 837.483 645.008 823.351 660.689C832.116 670.666 840.477 679.762 848.398 687.831C868.525 679.656 878.306 641.667 875.241 562.097C860.862 264.589 915.917 165.096 1004.73 128.539ZM1021.22 131.594C1015.95 130.586 1010.73 129.633 1005.52 128.686C916.497 165.016 861.25 264.205 875.646 562.077V562.08C878.711 641.633 868.895 679.757 848.702 688.141C856.732 696.302 864.312 703.403 871.418 709.324C873.278 709.583 875.077 709.68 876.808 709.58C901.249 708.168 912.62 670.224 907.365 579.122C888.365 274.911 938.315 170.788 1021.22 131.594ZM1038.2 134.935C1032.77 133.844 1027.34 132.759 1021.97 131.731C938.875 170.699 888.747 274.524 907.77 579.099C913.042 670.488 901.533 708.558 876.831 709.985C875.27 710.076 873.651 710.002 871.986 709.801C888.334 723.326 902.136 730.505 913.03 729.681C936.481 727.91 946.489 688.922 939.489 596.149C916.058 285.675 961.022 176.868 1038.2 134.935ZM1022.62 131.439C1027.96 132.463 1033.36 133.548 1038.76 134.63C1040.77 133.551 1042.8 132.512 1044.85 131.513C1039.54 130.528 1034.25 129.569 1028.99 128.637C1026.85 129.529 1024.73 130.463 1022.62 131.439ZM1006.22 128.399C1011.41 129.346 1016.61 130.293 1021.87 131.298C1023.95 130.322 1026.06 129.388 1028.19 128.496C1023.05 127.589 1017.93 126.709 1012.85 125.856C1010.62 126.669 1008.41 127.517 1006.22 128.399ZM990.319 125.54C995.316 126.407 1000.38 127.337 1005.42 128.252C1007.59 127.37 1009.78 126.523 1011.99 125.712C1007.01 124.876 1002.05 124.064 997.118 123.275C994.832 123.995 992.566 124.75 990.319 125.54ZM974.818 122.968C979.677 123.76 984.533 124.547 989.45 125.396C991.673 124.608 993.914 123.852 996.174 123.129C991.385 122.369 986.621 121.632 981.882 120.919C979.509 121.571 977.155 122.254 974.818 122.968ZM959.92 120.54C964.527 121.257 969.208 122.05 973.854 122.807C976.164 122.094 978.49 121.41 980.834 120.758C976.225 120.066 971.627 119.389 967.064 118.74C964.664 119.314 962.283 119.914 959.92 120.54ZM945.168 118.381C949.72 119.036 954.246 119.673 958.85 120.382C961.188 119.756 963.541 119.156 965.91 118.582C961.45 117.951 957.012 117.342 952.596 116.757C950.103 117.273 947.627 117.815 945.168 118.381ZM931.18 116.332C935.425 116.923 939.753 117.595 944.026 118.212C946.447 117.647 948.883 117.107 951.336 116.59C947.052 116.02 942.789 115.47 938.547 114.94C936.077 115.384 933.622 115.848 931.18 116.332ZM917.183 114.549C921.419 115.08 925.618 115.577 929.909 116.162C932.312 115.676 934.73 115.21 937.164 114.765C933.045 114.256 928.946 113.765 924.869 113.292C922.292 113.692 919.73 114.111 917.183 114.549ZM903.898 112.87C907.83 113.349 911.808 113.869 915.762 114.371C918.256 113.931 920.764 113.511 923.288 113.111C919.327 112.656 915.385 112.217 911.46 111.794C908.923 112.135 906.409 112.497 903.898 112.87ZM890.73 111.389C894.585 111.805 898.431 112.213 902.334 112.672C904.779 112.301 907.239 111.945 909.713 111.604C905.966 111.206 902.235 110.823 898.52 110.453C895.908 110.748 893.311 111.06 890.73 111.389ZM877.979 110.034C881.624 110.409 885.282 110.798 888.954 111.2C891.477 110.87 894.015 110.556 896.565 110.255C892.964 109.903 889.38 109.567 885.814 109.248C883.191 109.497 880.573 109.753 877.979 110.034ZM865.799 108.82C869.205 109.139 872.646 109.489 876.082 109.833C878.567 109.558 881.065 109.296 883.575 109.05C880.166 108.747 876.771 108.456 873.39 108.177C870.845 108.378 868.315 108.592 865.799 108.82ZM853.518 107.769C856.83 108.045 860.139 108.318 863.485 108.622C865.912 108.392 868.35 108.174 870.801 107.967C867.589 107.709 864.389 107.463 861.201 107.23C858.632 107.402 856.066 107.577 853.518 107.769ZM842.138 106.796C845.037 107.035 847.973 107.304 850.875 107.543C853.337 107.347 855.831 107.181 858.319 107.015C855.342 106.8 852.377 106.598 849.422 106.409C846.986 106.529 844.546 106.65 842.138 106.796ZM830.495 106.004C833.411 106.185 836.315 106.351 839.28 106.572C841.438 106.433 843.607 106.302 845.786 106.179C843.09 106.013 840.404 105.853 837.727 105.7C835.303 105.792 832.892 105.893 830.495 106.004ZM819.411 105.289C821.933 105.452 824.454 105.616 826.976 105.78C829.048 105.671 831.1 105.545 833.184 105.453C830.754 105.325 828.331 105.203 825.914 105.089C823.737 105.148 821.569 105.215 819.411 105.289ZM809.461 104.695C811.447 104.793 813.47 104.922 815.473 105.037C817.211 104.968 818.953 104.903 820.699 104.842C818.679 104.756 816.664 104.674 814.655 104.598C812.918 104.626 811.186 104.659 809.461 104.695ZM799.005 104.245C800.538 104.311 802.062 104.368 803.6 104.443C804.88 104.406 806.161 104.372 807.443 104.339C806.183 104.296 804.92 104.25 803.663 104.21C802.108 104.222 800.549 104.227 799.005 104.245ZM791.543 103.923C791.704 103.929 791.865 103.936 792.025 103.943C792.303 103.939 792.579 103.936 792.855 103.932L792.7 103.929C792.313 103.925 791.928 103.923 791.543 103.923ZM62.0982 425.186C57.1532 429.871 52.4177 434.108 47.8544 437.833C58.8551 436.206 70.3322 432.276 82.5154 426.292C75.6044 426.409 68.8054 426.036 62.0982 425.186ZM76.893 410.55C71.8935 415.663 67.0977 420.433 62.4856 424.819C69.3478 425.672 76.3076 426.025 83.385 425.861C88.8753 423.128 94.5091 419.985 100.309 416.446C92.4341 414.85 84.6306 412.861 76.893 410.55ZM91.7568 395.088C86.7199 400.392 81.8811 405.45 77.2231 410.215C85.0238 412.534 92.8933 414.529 100.835 416.125C106.253 412.804 111.818 409.141 117.541 405.16C108.908 402.028 100.309 398.638 91.7568 395.088ZM100.771 385.573C97.8019 388.713 94.8975 391.779 92.0581 394.772C100.651 398.334 109.284 401.736 117.954 404.876C122.617 401.623 127.393 398.162 132.281 394.494C133.018 393.941 133.756 393.383 134.497 392.82C125.25 388.377 116.011 383.796 106.796 379.206C104.761 381.356 102.743 383.486 100.771 385.573ZM122.819 419.882C115.446 419.136 108.136 418.022 100.889 416.573C95.2352 420.034 89.7306 423.134 84.3694 425.838C94.8793 425.528 105.648 424.081 116.749 421.441C118.762 420.962 120.785 420.443 122.819 419.882Z" fill="white"/>
</mask>
<g mask="url(#mask0_43_23)">
<path d="M0 730.927H1435V-45.738H0V730.927Z" fill="url(#paint0_linear_43_23)"/>
</g>
<defs>
<linearGradient id="paint0_linear_43_23" x1="20122.7" y1="31036.7" x2="6.84305e+06" y2="-4.4993e+06" gradientUnits="userSpaceOnUse">
<stop stop-color="#00CCFF"/>
<stop offset="1" stop-color="#FFFF00"/>
</linearGradient>
</defs>
</svg>
