<svg width="1440" height="567" viewBox="0 0 1440 567" fill="none" xmlns="http://www.w3.org/2000/svg">
<mask id="mask0_43_10" style="mask-type:luminance" maskUnits="userSpaceOnUse" x="0" y="0" width="1440" height="568">
<path d="M0.0878906 14.1962C60.8586 17.6162 137.598 13.1772 218.215 8.50635C381.943 -0.976181 561.591 -11.3817 656.062 41.3753C732.002 83.7844 752.92 166.901 666.473 323.825C664.691 327.174 662.844 330.569 660.956 333.99C660.424 334.995 659.867 336.012 659.324 337.021C642.321 370.121 638.303 395.03 644.487 412.695C650.93 431.105 668.503 441.673 694.022 445.466C719.641 449.275 753.248 446.258 791.643 437.497C934.018 405.012 1142.11 293.585 1253.28 158.272C1309.78 89.495 1356.71 48.9655 1395.39 29.8613C1411.69 21.8152 1426.52 17.5666 1440 16.6052V17.3986C1426.64 18.36 1411.92 22.583 1395.74 30.5715C1357.16 49.6277 1310.32 90.0885 1253.89 158.773C1142.61 294.22 934.324 405.754 791.816 438.268C753.327 447.05 719.622 450.071 693.906 446.25C668.089 442.412 650.293 431.677 643.74 412.955C638.47 397.9 640.502 377.69 651.512 351.768C636.451 382.598 633.075 406.021 638.971 422.862C645.413 441.272 662.987 451.84 688.505 455.632C714.126 459.44 747.733 456.423 786.126 447.664C928.503 415.179 1136.59 303.753 1247.76 168.439C1304.27 99.6606 1351.2 59.1311 1389.88 40.0284C1408.42 30.8674 1425.08 26.63 1440 26.5596V27.3531C1425.2 27.4234 1408.66 31.6352 1390.23 40.7371C1351.64 59.7933 1304.8 100.256 1248.37 168.94C1137.09 304.386 928.807 415.919 786.299 448.435C747.81 457.217 714.105 460.238 688.39 456.415C662.572 452.579 644.777 441.844 638.223 423.121C632.955 408.067 634.987 387.856 645.996 361.934C630.936 392.765 627.56 416.188 633.454 433.027C639.898 451.437 657.47 462.006 682.989 465.799C708.609 469.607 742.217 466.591 780.61 457.829C922.987 425.344 1131.07 313.918 1242.25 178.605C1298.75 109.828 1345.68 69.2982 1384.36 50.194C1405.23 39.8893 1423.71 35.8134 1440 36.8932V37.6882C1423.83 36.6036 1405.47 40.6539 1384.71 50.9042C1346.13 69.9605 1299.28 110.421 1242.86 179.106C1131.57 314.553 923.291 426.087 780.783 458.6C742.295 467.382 708.589 470.404 682.873 466.582C657.056 462.745 639.26 452.01 632.707 433.288C627.438 418.232 629.47 398.023 640.481 372.101C625.419 402.931 622.042 426.354 627.938 443.194C634.382 461.604 651.954 472.173 677.472 475.964C703.093 479.773 736.701 476.756 775.095 467.997C917.47 435.512 1125.56 324.085 1236.73 188.772C1293.24 119.993 1340.16 79.4638 1378.85 60.3612C1402.1 48.8743 1422.39 45.1264 1440 47.633V48.4344C1422.52 45.9166 1402.35 49.6357 1379.2 61.0698C1340.61 80.126 1293.77 120.588 1237.34 189.273C1126.06 324.719 917.774 436.252 775.266 468.768C736.779 477.549 703.074 480.571 677.357 476.75C651.539 472.912 633.744 462.177 627.192 443.454C621.922 428.4 623.954 408.188 634.964 382.267C619.903 413.098 616.525 436.521 622.423 453.36C628.866 471.772 646.439 482.339 671.956 486.131C697.577 489.94 731.184 486.923 769.579 478.162C911.954 445.677 1120.04 334.251 1231.21 198.938C1287.72 130.161 1334.65 89.631 1373.33 70.5267C1399.06 57.821 1421.15 54.5833 1440 58.8063V59.6189C1421.29 55.3768 1399.31 58.5792 1373.68 71.237C1335.09 90.2932 1288.25 130.754 1231.82 199.44C1120.54 334.886 912.259 446.419 769.751 478.935C731.262 487.715 697.557 490.737 671.842 486.915C646.023 483.078 628.229 472.343 621.676 453.621C616.405 438.565 618.437 418.356 629.448 392.434C614.386 423.263 611.011 446.686 616.906 463.527C623.349 481.937 640.922 492.506 666.441 496.297C692.06 500.106 725.668 497.089 764.062 488.329C906.437 455.844 1114.53 344.418 1225.7 209.105C1282.2 140.326 1329.13 99.7965 1367.81 80.6939C1396.09 66.726 1419.99 64.2002 1440 70.45V71.2786C1420.13 64.9953 1396.36 67.4795 1368.16 81.4025C1329.58 100.459 1282.74 140.921 1226.31 209.606C1115.03 345.052 906.743 456.585 764.235 489.1C725.746 497.882 692.041 500.904 666.326 497.082C640.508 493.245 622.712 482.51 616.159 463.786C610.889 448.732 612.921 428.521 623.931 402.599C608.872 433.43 605.494 456.854 611.39 473.693C617.833 492.104 635.406 502.671 660.924 506.464C686.545 510.273 720.151 507.256 758.546 498.495C900.922 466.011 1109.01 354.584 1220.18 219.27C1276.69 150.493 1323.62 109.964 1362.3 90.8595C1391.11 76.6309 1415.37 74.2746 1435.61 80.977C1437.1 81.4697 1438.56 82.0104 1440 82.5991V83.4532C1438.48 82.8251 1436.93 82.2509 1435.37 81.7305C1415.31 75.0904 1391.26 77.4403 1362.65 91.5697C1324.06 110.626 1277.22 151.087 1220.79 219.773C1109.51 355.219 901.226 466.752 758.718 499.268C720.23 508.048 686.524 511.069 660.809 507.248C634.992 503.41 617.196 492.675 610.643 473.954C605.373 458.898 607.404 438.688 618.415 412.767C603.355 443.596 599.978 467.019 605.873 483.86C612.318 502.27 629.889 512.839 655.408 516.63C681.029 520.438 714.636 517.422 753.029 508.662C895.406 476.177 1103.49 364.751 1214.66 229.438C1271.17 160.659 1318.1 120.129 1356.78 101.027C1385.59 86.7964 1409.85 84.4402 1430.1 91.1442C1433.51 92.2751 1436.81 93.6668 1440 95.2984V96.1894C1436.74 94.4938 1433.35 93.0574 1429.85 91.8976C1409.8 85.2576 1385.74 87.6059 1357.13 101.735C1318.55 120.792 1271.7 161.254 1215.27 229.938C1103.99 365.384 895.71 476.918 753.202 509.433C714.713 518.215 681.008 521.237 655.293 517.415C629.475 513.578 611.679 502.843 605.126 484.119C599.858 469.065 601.89 448.854 612.9 422.932C597.839 453.763 594.461 477.186 600.357 494.026C606.801 512.437 624.373 523.004 649.891 526.797C675.512 530.606 709.12 527.589 747.513 518.828C889.89 486.344 1097.98 374.916 1209.15 239.603C1265.66 170.826 1312.58 130.296 1351.26 111.194C1380.08 96.9636 1404.34 94.6074 1424.58 101.31C1430.01 103.108 1435.14 105.555 1440 108.599V109.538C1435.07 106.403 1429.85 103.892 1424.33 102.063C1404.28 95.4232 1380.22 97.773 1351.61 111.902C1313.03 130.959 1266.19 171.421 1209.76 240.105C1098.48 375.551 890.194 487.085 747.685 519.6C709.198 528.381 675.493 531.402 649.776 527.581C623.959 523.743 606.163 513.008 599.611 494.286C594.341 479.231 596.373 459.021 607.384 433.099C592.322 463.929 588.945 487.354 594.842 504.193C601.285 522.603 618.857 533.171 644.375 536.964C669.996 540.771 703.603 537.754 741.998 528.995C884.373 496.51 1092.46 385.084 1203.63 249.77C1260.14 180.992 1307.07 140.462 1345.75 121.359C1374.56 107.129 1398.82 104.775 1419.06 111.477C1426.59 113.971 1433.56 117.715 1440 122.567V123.562C1433.49 118.586 1426.44 114.755 1418.82 112.23C1398.77 105.59 1374.71 107.939 1346.1 122.068C1307.51 141.124 1260.67 181.587 1204.24 250.271C1092.96 385.717 884.679 497.252 742.171 529.766C703.682 538.548 669.977 541.569 644.261 537.748C618.442 533.91 600.648 523.175 594.095 504.452C588.825 489.398 590.857 469.188 601.867 443.266C586.806 474.096 583.428 497.519 589.326 514.36C595.768 532.77 613.342 543.337 638.859 547.13C664.479 550.938 698.087 547.921 736.481 539.162C878.857 506.677 1086.94 395.249 1198.12 259.936C1254.62 191.159 1301.55 150.629 1340.23 131.527C1369.05 117.296 1393.3 114.94 1413.55 121.644C1423.28 124.866 1432.07 130.178 1440 137.271V138.338C1432.01 131.079 1423.14 125.653 1413.3 122.396C1393.25 115.756 1369.19 118.106 1340.58 132.235C1302 151.291 1255.16 191.754 1198.73 260.438C1087.45 395.884 879.162 507.418 736.654 539.933C698.165 548.715 664.46 551.735 638.745 547.913C612.926 544.076 595.132 533.341 588.578 514.619C583.308 499.565 585.34 479.354 596.351 453.432C581.291 484.261 577.913 507.686 583.809 524.525C590.252 542.935 607.825 553.504 633.344 557.297C658.964 561.104 692.57 558.087 730.965 549.328C873.34 516.842 1081.43 405.416 1192.6 270.103C1249.11 201.324 1296.04 160.795 1334.72 141.692C1363.53 127.462 1387.79 125.107 1408.03 131.81C1420.08 135.799 1430.69 142.993 1440 152.8V153.956C1430.64 143.93 1419.95 136.589 1407.78 132.563C1387.73 125.923 1363.68 128.271 1335.07 142.402C1296.48 161.459 1249.64 201.919 1193.21 270.604C1081.93 406.05 873.646 517.585 731.138 550.099C692.649 558.88 658.944 561.902 633.228 558.081C607.411 554.243 589.615 543.508 583.062 524.785C577.792 509.731 579.824 489.521 590.834 463.599C575.774 494.429 572.397 517.852 578.293 534.693C584.492 552.404 600.992 562.855 624.955 567H620.741C598.691 562.35 583.491 551.938 577.545 534.952C572.277 519.898 574.309 499.687 585.319 473.765C570.258 504.596 566.881 528.019 572.776 544.858C576.053 554.221 582.211 561.555 590.825 567H589.362C581.142 561.534 575.238 554.285 572.031 545.117C566.761 530.063 568.792 509.854 579.803 483.932C564.741 514.761 561.364 538.185 567.26 555.025C568.816 559.469 571.023 563.455 573.83 567H572.821C570.144 563.513 568.029 559.613 566.514 555.285C561.244 540.231 563.276 520.019 574.286 494.098C559.225 524.929 555.848 548.352 561.745 565.191C561.959 565.803 562.186 566.406 562.425 567H561.574C561.373 566.49 561.181 565.974 560.998 565.452C555.728 550.396 557.759 530.187 568.77 504.265C556.057 530.289 551.669 551.036 554.156 567H553.36C551.232 553.115 554.22 535.696 563.254 514.43C553.086 535.246 548.245 552.685 547.986 567H547.2C547.416 555.049 550.787 540.962 557.737 524.597C549.864 540.717 545.184 554.811 543.352 567H542.56C543.986 557.43 547.151 546.703 552.222 534.763C546.448 546.583 542.392 557.311 539.917 567H539.108C540.842 560.16 543.359 552.81 546.706 544.93C542.88 552.76 539.81 560.112 537.453 567H536.623C537.922 563.175 539.444 559.207 541.189 555.096C539.186 559.194 537.393 563.161 535.798 567H534.946C535.184 566.424 535.426 565.845 535.673 565.263L534.834 567H533.959C536.338 562.006 539.026 556.819 542.036 551.431C542.508 550.586 542.96 549.755 543.424 548.915C544.727 546.411 546.103 543.861 547.552 541.265C548.024 540.421 548.48 539.586 548.941 538.749C549.88 536.943 550.858 535.112 551.873 533.258C629.299 385.773 607.588 306.645 534.322 265.727C440.055 213.083 260.523 223.482 96.9044 232.958C63.6936 234.881 31.1452 236.764 0.0878906 238.077V237.287C31.1276 235.975 63.6632 234.091 96.8596 232.168C260.587 222.686 440.235 212.278 534.706 265.037C601.856 302.535 625.995 371.858 570.915 495.9C631.859 365.744 608.468 293.888 539.839 255.561C445.569 202.918 266.038 213.317 102.421 222.791C67.239 224.829 32.7979 226.822 0.0878906 228.139V227.348C32.7803 226.032 67.207 224.039 102.376 222.003C266.104 212.518 445.752 202.113 540.223 254.87C607.372 292.37 631.512 361.691 576.432 485.733C637.377 355.577 613.983 283.721 545.355 245.394C451.086 192.75 271.555 203.149 107.936 212.626C70.7732 214.779 34.4314 216.882 0.0878906 218.191V217.399C34.4122 216.09 70.7412 213.987 107.893 211.835C271.619 202.351 451.268 191.946 545.739 244.704C612.887 282.203 637.028 351.525 581.947 475.568C642.893 345.41 619.501 273.555 550.87 235.228C456.602 182.583 277.071 192.984 113.452 202.458C74.2914 204.728 36.0457 206.941 0.0878906 208.225V207.436C36.0265 206.149 74.2594 203.936 113.409 201.67C277.135 192.186 456.785 181.78 551.256 234.537C618.404 272.037 642.545 341.358 587.463 465.4C648.41 335.243 625.018 263.388 556.387 225.061C462.119 172.418 282.587 182.817 118.969 192.293C77.7967 194.678 37.6408 197.001 0.0878906 198.248V197.458C37.6216 196.209 77.7648 193.886 118.925 191.503C282.651 182.018 462.301 171.613 556.772 224.372C623.92 261.87 648.06 331.192 592.98 455.235C653.926 325.077 630.534 253.222 561.903 214.895C467.635 162.25 288.104 172.651 124.485 182.126C81.2925 184.627 39.2119 187.064 0.0878906 188.259V187.472C39.1911 186.272 81.2589 183.837 124.442 181.337C288.168 171.853 467.816 161.447 562.287 214.204C629.437 251.704 653.576 321.025 598.496 445.068C659.443 314.91 636.049 243.055 567.42 204.728C473.15 152.085 293.619 162.484 130.002 171.96C84.7707 174.58 40.7606 177.125 0.0878906 178.253V177.466C40.7366 176.335 84.7371 173.79 129.957 171.17C293.684 161.686 473.333 151.28 567.804 204.039C634.953 241.537 659.092 310.86 604.013 434.9C664.958 304.744 641.566 232.888 572.936 194.563C478.667 141.918 299.135 152.317 135.516 161.793C88.2329 164.531 42.2853 167.188 0.0878906 168.228V167.441C42.2629 166.398 88.1977 163.741 135.473 161.003C299.199 151.52 478.849 141.115 573.32 193.872C640.47 231.372 664.609 300.693 609.529 424.735C670.474 294.577 647.082 222.722 578.451 184.396C484.183 131.752 304.652 142.151 141.033 151.627C91.6807 154.486 43.7828 157.256 0.0878906 158.191V157.404C43.7588 156.466 91.6455 153.696 140.99 150.837C304.716 141.353 484.366 130.947 578.837 183.706C645.984 221.204 670.125 290.527 615.044 414.568C675.991 284.412 652.598 212.555 583.967 174.23C489.7 121.585 310.168 131.984 146.549 141.46C95.1157 144.44 45.2515 147.328 0.0878906 148.135V147.348C45.2243 146.536 95.0773 143.65 146.506 140.67C310.232 131.187 489.882 120.782 584.353 173.539C651.501 211.039 675.64 280.36 620.56 404.402C681.507 274.244 658.115 202.39 589.484 164.063C495.216 111.419 315.683 121.818 152.066 131.295C98.5251 134.395 46.6946 137.394 0.0878906 138.055V137.271C46.6658 136.605 98.4883 133.606 152.023 130.504C315.749 121.02 495.397 110.615 589.868 163.373C657.017 200.872 681.157 270.193 626.077 394.235C687.022 264.079 663.63 192.222 595 153.897C500.731 101.252 321.199 111.651 157.582 121.127C101.918 124.352 48.1042 127.465 0.0878906 127.955V127.169C48.0754 126.673 101.88 123.562 157.537 120.337C321.265 110.855 500.913 100.449 595.384 153.206C662.534 190.706 686.673 260.027 631.593 384.069C692.538 253.912 669.146 182.057 600.517 143.73C506.247 91.0866 326.716 101.486 163.097 110.962C105.294 114.31 49.4817 117.54 0.0878906 117.834V117.05C49.4497 116.748 105.254 113.52 163.054 110.172C326.78 100.688 506.43 90.282 600.901 143.041C668.05 180.539 692.19 249.86 637.11 373.902C698.055 243.746 674.663 171.89 606.033 133.563C511.764 80.9194 332.232 91.3186 168.614 100.795C108.652 104.269 50.8224 107.619 0.0878906 107.692V106.908C50.7872 106.827 108.609 103.479 168.57 100.004C332.296 90.5219 511.946 80.1165 606.417 132.873C673.565 170.373 697.706 239.694 642.625 363.737C703.571 233.579 680.179 161.724 611.548 123.397C517.28 70.7539 337.749 81.153 174.13 90.6291C111.98 94.2283 52.1295 97.6914 0.0878906 97.5155V96.7349C52.0927 96.9028 111.937 93.4381 174.087 89.8389C337.813 80.3548 517.463 69.9493 611.934 122.706C679.082 160.206 703.223 229.527 648.141 353.57C709.088 223.413 685.696 151.557 617.065 113.23C522.797 60.5867 343.265 70.9858 179.647 80.462C115.287 84.1907 53.3966 87.769 0.0878906 87.3147V86.5341C53.3566 86.9804 115.242 83.4005 179.603 79.6717C343.329 70.1892 522.978 59.7837 617.449 112.541C684.598 150.039 708.737 219.362 653.658 343.404C714.603 213.246 691.211 141.391 622.581 103.065C528.312 50.4211 348.78 60.8202 185.163 70.2964C118.572 74.1531 54.6222 77.853 0.0878906 77.0868V76.3062C54.579 77.0628 118.524 73.3629 185.12 69.5062C348.846 60.022 528.494 49.6165 622.965 102.374C690.115 139.873 714.254 209.194 659.174 333.237C720.119 203.081 696.727 131.224 628.098 92.8974C533.828 40.254 354.297 50.6531 190.678 60.1292C121.831 64.1171 55.7997 67.9402 0.0878906 66.83V66.0494C55.7549 67.1499 121.781 63.3285 190.635 59.339C354.362 49.8565 534.011 39.4494 628.482 92.2079C695.631 129.706 719.77 199.029 664.691 323.071C725.636 192.914 702.243 121.059 633.614 82.7318C539.345 30.0884 359.813 40.4875 196.194 49.962C125.061 54.0827 56.934 58.0273 0.0878906 56.5381V55.7591C56.8828 57.2387 125.011 53.2941 196.151 49.1734C359.877 39.6893 539.527 29.2838 633.998 82.0408C701.146 119.541 725.287 188.862 670.205 312.904C731.152 182.748 707.76 110.891 639.129 72.5646C544.861 19.9212 365.33 30.3203 201.711 39.7965C128.258 44.0515 58.0188 48.1145 0.0878906 46.2045V45.4271C57.9628 47.3259 128.206 43.2612 201.668 39.0063C365.394 29.5221 545.043 19.1166 639.514 71.8752C706.664 109.375 730.803 178.694 675.722 302.738C736.669 172.581 713.275 100.726 644.645 62.3991C550.378 9.75406 370.846 20.1548 207.227 29.6293C131.425 34.0203 59.0475 38.2081 0.0878906 35.8358V35.0584C58.9883 37.4194 131.371 33.2316 207.184 28.8407C370.91 19.3566 550.56 8.95104 645.031 61.708C712.179 99.2079 736.321 168.529 681.238 292.571C742.185 162.414 718.791 90.5587 650.162 52.2319C555.892 -0.411517 376.361 9.9876 212.744 19.4637C134.561 23.9923 60.0186 28.3048 0.0878906 25.4255V24.6481C59.9562 27.5146 134.502 23.2036 212.701 18.6735C376.427 9.18939 556.075 -1.21613 650.546 51.5425C717.695 89.0407 741.835 158.363 686.755 282.404C747.7 152.248 724.308 80.3916 655.678 42.0663C561.409 -10.5787 381.877 -0.177967 218.259 9.29657C137.66 13.9659 60.9274 18.4048 0.0878906 14.972V14.1962ZM683.373 567.002C696.567 565.392 710.651 562.872 725.448 559.495C867.825 527.01 1075.91 415.583 1187.08 280.27C1243.59 211.493 1290.52 170.964 1329.2 151.859C1358.01 137.629 1382.27 135.274 1402.51 141.977C1417.01 146.777 1429.44 156.218 1440 169.27V170.536C1429.4 157.204 1416.89 147.572 1402.27 142.73C1382.22 136.09 1358.16 138.44 1329.55 152.57C1290.96 171.626 1244.12 212.086 1187.69 280.771C1076.41 416.219 868.129 527.752 725.621 560.266C713.022 563.14 700.935 565.399 689.473 567.002H683.373ZM730.995 567.002C872.902 531.447 1073.24 422.289 1181.57 290.437C1238.07 221.659 1285 181.129 1323.68 162.026C1352.5 147.796 1376.75 145.44 1397 152.144C1414.1 157.807 1428.32 169.93 1440 186.819V188.219C1428.3 170.975 1413.99 158.606 1396.75 152.896C1376.7 146.256 1352.64 148.606 1324.03 162.735C1285.45 181.791 1238.61 222.254 1182.18 290.938C1074.52 421.972 876.082 530.62 734.24 567.002H730.995ZM761.369 567.002C899.526 523.612 1076.58 421.675 1176.05 300.603C1232.56 231.826 1279.49 191.296 1318.17 172.192C1346.98 157.962 1371.24 155.607 1391.48 162.31C1411.37 168.897 1427.37 184.228 1440 205.629V207.196L1439.99 207.177C1427.35 185.339 1411.28 169.701 1391.23 163.063C1371.18 156.423 1347.13 158.773 1318.51 172.902C1279.93 191.959 1233.09 232.419 1176.66 301.104C1077.67 421.587 901.93 523.147 764.006 567.002H761.369ZM785.982 567.002C918.885 519.133 1078.16 423.201 1170.53 310.77C1227.04 241.991 1273.97 201.462 1312.65 182.359C1341.46 168.129 1365.72 165.773 1385.96 172.477C1406.21 179.181 1422.43 194.943 1435.15 216.946C1436.83 219.84 1438.44 222.846 1440 225.95V227.734C1438.23 224.133 1436.39 220.665 1434.47 217.343C1421.84 195.505 1405.76 179.867 1385.72 173.229C1365.67 166.589 1341.61 168.938 1313 183.068C1274.41 202.124 1227.57 242.586 1171.14 311.271C1079.16 423.226 920.908 518.84 788.304 567.002H785.982ZM807.266 567.002C934.229 516.481 1078.78 425.901 1165.02 320.936C1221.52 252.159 1268.45 211.629 1307.13 192.525C1335.95 178.295 1360.21 175.94 1380.45 182.642C1400.7 189.348 1416.91 205.109 1429.64 227.112C1433.39 233.597 1436.84 240.624 1440 248.123V250.177C1436.65 242.052 1432.98 234.465 1428.95 227.51C1416.32 205.672 1400.25 190.034 1380.2 183.396C1360.15 176.756 1336.09 179.106 1307.48 193.235C1268.9 212.291 1222.06 252.752 1165.63 321.438C1079.72 425.995 936.021 516.292 809.387 567.002H807.266ZM826.276 567.002C946.944 515.016 1078.77 429.363 1159.5 331.103C1216.01 262.324 1262.94 221.795 1301.62 202.692C1330.43 188.462 1354.69 186.106 1374.93 192.81C1395.18 199.514 1411.39 215.276 1424.12 237.279C1430.18 247.758 1435.46 259.654 1440 272.664V275.086C1435.31 261.278 1429.81 248.689 1423.44 237.676C1410.81 215.838 1394.73 200.2 1374.69 193.563C1354.64 186.921 1330.58 189.271 1301.97 203.401C1263.38 222.457 1216.54 262.919 1160.11 331.604C1079.68 429.5 948.582 514.894 828.265 567.002H826.276ZM843.566 567.002C957.753 514.393 1078.32 433.37 1153.99 341.268C1210.49 272.491 1257.42 231.962 1296.1 212.858C1324.92 198.629 1349.18 196.273 1369.42 202.975C1389.66 209.681 1405.88 225.442 1418.61 247.446C1427.3 262.478 1434.37 280.432 1440 300.4V303.354C1434.27 282.348 1426.98 263.501 1417.92 247.843C1405.29 226.005 1389.22 210.367 1369.17 203.729C1349.12 197.089 1325.06 199.438 1296.45 213.568C1257.87 232.624 1211.03 273.085 1154.6 341.771C1079.2 433.542 959.269 514.326 845.441 567.002H843.566ZM859.475 567.002C967.099 514.413 1077.52 437.793 1148.47 351.436C1204.98 282.657 1251.91 242.127 1290.59 223.025C1319.4 208.795 1343.66 206.438 1363.9 213.142C1384.15 219.846 1400.36 235.609 1413.09 257.612C1424.92 278.053 1433.74 303.892 1440 332.861V336.67C1433.71 306.301 1424.68 279.23 1412.41 258.008C1399.77 236.17 1383.7 220.532 1363.65 213.896C1343.6 207.256 1319.55 209.604 1290.94 223.733C1252.35 242.79 1205.51 283.252 1149.08 351.936C1078.38 437.991 968.522 514.384 861.255 567.002H859.475ZM874.211 567.002C975.264 514.937 1076.45 442.548 1142.95 361.601C1199.46 292.824 1246.39 252.294 1285.07 233.192C1313.88 218.962 1338.14 216.605 1358.38 223.308C1378.63 230.013 1394.85 245.774 1407.57 267.779C1423.42 295.164 1433.87 332.237 1440 373.554V379.143C1434.01 335.726 1423.38 296.674 1406.89 268.175C1394.26 246.338 1378.18 230.7 1358.14 224.061C1338.09 217.421 1314.03 219.771 1285.42 233.901C1246.83 252.957 1199.99 293.419 1143.56 362.103C1077.29 442.764 976.624 514.939 875.93 567.002H874.211ZM887.954 567.002C982.47 515.87 1075.16 447.569 1137.44 371.768C1193.94 302.99 1240.87 262.46 1279.55 243.357C1308.37 229.127 1332.63 226.771 1352.87 233.475C1373.11 240.179 1389.33 255.942 1402.06 277.944C1420.85 310.426 1432.06 356.534 1437.46 407.185L1436.67 407.269C1431.28 356.719 1420.11 310.721 1401.37 278.341C1388.74 256.503 1372.67 240.865 1352.62 234.228C1332.57 227.588 1308.51 229.937 1279.9 244.066C1241.32 263.122 1194.48 303.585 1138.05 372.269C1075.99 447.806 983.757 515.897 889.592 567.002H887.954ZM900.794 567.002C988.847 517.142 1073.68 452.819 1131.92 381.934C1188.43 313.157 1235.36 272.627 1274.04 253.525C1302.85 239.294 1327.11 236.938 1347.35 243.641C1367.6 250.346 1383.81 266.107 1396.54 288.112C1415.33 320.593 1426.54 366.699 1431.94 417.353L1431.16 417.436C1425.77 366.885 1414.59 320.888 1395.86 288.508C1383.22 266.67 1367.15 251.032 1347.1 244.394C1327.05 237.754 1303 240.104 1274.39 254.233C1235.8 273.289 1188.96 313.752 1132.53 382.436C1074.5 453.069 990.088 517.19 902.385 567.002H900.794Z" fill="white"/>
<path d="M0.0878906 14.1962C60.8586 17.6162 137.598 13.1772 218.215 8.50635C381.943 -0.976181 561.591 -11.3817 656.062 41.3753C732.002 83.7844 752.92 166.901 666.473 323.825C664.691 327.174 662.844 330.569 660.956 333.99C660.424 334.995 659.867 336.012 659.324 337.021C642.321 370.121 638.303 395.03 644.487 412.695C650.93 431.105 668.503 441.673 694.022 445.466C719.641 449.275 753.248 446.258 791.643 437.497C934.018 405.012 1142.11 293.585 1253.28 158.272C1309.78 89.495 1356.71 48.9655 1395.39 29.8613C1411.69 21.8152 1426.52 17.5666 1440 16.6052V17.3986C1426.64 18.36 1411.92 22.583 1395.74 30.5715C1357.16 49.6277 1310.32 90.0885 1253.89 158.773C1142.61 294.22 934.324 405.754 791.816 438.268C753.327 447.05 719.622 450.071 693.906 446.25C668.089 442.412 650.293 431.677 643.74 412.955C638.47 397.9 640.502 377.69 651.512 351.768C636.451 382.598 633.075 406.021 638.971 422.862C645.413 441.272 662.987 451.84 688.505 455.632C714.126 459.44 747.733 456.423 786.126 447.664C928.503 415.179 1136.59 303.753 1247.76 168.439C1304.27 99.6606 1351.2 59.1311 1389.88 40.0284C1408.42 30.8674 1425.08 26.63 1440 26.5596V27.3531C1425.2 27.4234 1408.66 31.6352 1390.23 40.7371C1351.64 59.7933 1304.8 100.256 1248.37 168.94C1137.09 304.386 928.807 415.919 786.299 448.435C747.81 457.217 714.105 460.238 688.39 456.415C662.572 452.579 644.777 441.844 638.223 423.121C632.955 408.067 634.987 387.856 645.996 361.934C630.936 392.765 627.56 416.188 633.454 433.027C639.898 451.437 657.47 462.006 682.989 465.799C708.609 469.607 742.217 466.591 780.61 457.829C922.987 425.344 1131.07 313.918 1242.25 178.605C1298.75 109.828 1345.68 69.2982 1384.36 50.194C1405.23 39.8893 1423.71 35.8134 1440 36.8932V37.6882C1423.83 36.6036 1405.47 40.6539 1384.71 50.9042C1346.13 69.9605 1299.28 110.421 1242.86 179.106C1131.57 314.553 923.291 426.087 780.783 458.6C742.295 467.382 708.589 470.404 682.873 466.582C657.056 462.745 639.26 452.01 632.707 433.288C627.438 418.232 629.47 398.023 640.481 372.101C625.419 402.931 622.042 426.354 627.938 443.194C634.382 461.604 651.954 472.173 677.472 475.964C703.093 479.773 736.701 476.756 775.095 467.997C917.47 435.512 1125.56 324.085 1236.73 188.772C1293.24 119.993 1340.16 79.4638 1378.85 60.3612C1402.1 48.8743 1422.39 45.1264 1440 47.633V48.4344C1422.52 45.9166 1402.35 49.6357 1379.2 61.0698C1340.61 80.126 1293.77 120.588 1237.34 189.273C1126.06 324.719 917.774 436.252 775.266 468.768C736.779 477.549 703.074 480.571 677.357 476.75C651.539 472.912 633.744 462.177 627.192 443.454C621.922 428.4 623.954 408.188 634.964 382.267C619.903 413.098 616.525 436.521 622.423 453.36C628.866 471.772 646.439 482.339 671.956 486.131C697.577 489.94 731.184 486.923 769.579 478.162C911.954 445.677 1120.04 334.251 1231.21 198.938C1287.72 130.161 1334.65 89.631 1373.33 70.5267C1399.06 57.821 1421.15 54.5833 1440 58.8063V59.6189C1421.29 55.3768 1399.31 58.5792 1373.68 71.237C1335.09 90.2932 1288.25 130.754 1231.82 199.44C1120.54 334.886 912.259 446.419 769.751 478.935C731.262 487.715 697.557 490.737 671.842 486.915C646.023 483.078 628.229 472.343 621.676 453.621C616.405 438.565 618.437 418.356 629.448 392.434C614.386 423.263 611.011 446.686 616.906 463.527C623.349 481.937 640.922 492.506 666.441 496.297C692.06 500.106 725.668 497.089 764.062 488.329C906.437 455.844 1114.53 344.418 1225.7 209.105C1282.2 140.326 1329.13 99.7965 1367.81 80.6939C1396.09 66.726 1419.99 64.2002 1440 70.45V71.2786C1420.13 64.9953 1396.36 67.4795 1368.16 81.4025C1329.58 100.459 1282.74 140.921 1226.31 209.606C1115.03 345.052 906.743 456.585 764.235 489.1C725.746 497.882 692.041 500.904 666.326 497.082C640.508 493.245 622.712 482.51 616.159 463.786C610.889 448.732 612.921 428.521 623.931 402.599C608.872 433.43 605.494 456.854 611.39 473.693C617.833 492.104 635.406 502.671 660.924 506.464C686.545 510.273 720.151 507.256 758.546 498.495C900.922 466.011 1109.01 354.584 1220.18 219.27C1276.69 150.493 1323.62 109.964 1362.3 90.8595C1391.11 76.6309 1415.37 74.2746 1435.61 80.977C1437.1 81.4697 1438.56 82.0104 1440 82.5991V83.4532C1438.48 82.8251 1436.93 82.2509 1435.37 81.7305C1415.31 75.0904 1391.26 77.4403 1362.65 91.5697C1324.06 110.626 1277.22 151.087 1220.79 219.773C1109.51 355.219 901.226 466.752 758.718 499.268C720.23 508.048 686.524 511.069 660.809 507.248C634.992 503.41 617.196 492.675 610.643 473.954C605.373 458.898 607.404 438.688 618.415 412.767C603.355 443.596 599.978 467.019 605.873 483.86C612.318 502.27 629.889 512.839 655.408 516.63C681.029 520.438 714.636 517.422 753.029 508.662C895.406 476.177 1103.49 364.751 1214.66 229.438C1271.17 160.659 1318.1 120.129 1356.78 101.027C1385.59 86.7964 1409.85 84.4402 1430.1 91.1442C1433.51 92.2751 1436.81 93.6668 1440 95.2984V96.1894C1436.74 94.4938 1433.35 93.0574 1429.85 91.8976C1409.8 85.2576 1385.74 87.6059 1357.13 101.735C1318.55 120.792 1271.7 161.254 1215.27 229.938C1103.99 365.384 895.71 476.918 753.202 509.433C714.713 518.215 681.008 521.237 655.293 517.415C629.475 513.578 611.679 502.843 605.126 484.119C599.858 469.065 601.89 448.854 612.9 422.932C597.839 453.763 594.461 477.186 600.357 494.026C606.801 512.437 624.373 523.004 649.891 526.797C675.512 530.606 709.12 527.589 747.513 518.828C889.89 486.344 1097.98 374.916 1209.15 239.603C1265.66 170.826 1312.58 130.296 1351.26 111.194C1380.08 96.9636 1404.34 94.6074 1424.58 101.31C1430.01 103.108 1435.14 105.555 1440 108.599V109.538C1435.07 106.403 1429.85 103.892 1424.33 102.063C1404.28 95.4232 1380.22 97.773 1351.61 111.902C1313.03 130.959 1266.19 171.421 1209.76 240.105C1098.48 375.551 890.194 487.085 747.685 519.6C709.198 528.381 675.493 531.402 649.776 527.581C623.959 523.743 606.163 513.008 599.611 494.286C594.341 479.231 596.373 459.021 607.384 433.099C592.322 463.929 588.945 487.354 594.842 504.193C601.285 522.603 618.857 533.171 644.375 536.964C669.996 540.771 703.603 537.754 741.998 528.995C884.373 496.51 1092.46 385.084 1203.63 249.77C1260.14 180.992 1307.07 140.462 1345.75 121.359C1374.56 107.129 1398.82 104.775 1419.06 111.477C1426.59 113.971 1433.56 117.715 1440 122.567V123.562C1433.49 118.586 1426.44 114.755 1418.82 112.23C1398.77 105.59 1374.71 107.939 1346.1 122.068C1307.51 141.124 1260.67 181.587 1204.24 250.271C1092.96 385.717 884.679 497.252 742.171 529.766C703.682 538.548 669.977 541.569 644.261 537.748C618.442 533.91 600.648 523.175 594.095 504.452C588.825 489.398 590.857 469.188 601.867 443.266C586.806 474.096 583.428 497.519 589.326 514.36C595.768 532.77 613.342 543.337 638.859 547.13C664.479 550.938 698.087 547.921 736.481 539.162C878.857 506.677 1086.94 395.249 1198.12 259.936C1254.62 191.159 1301.55 150.629 1340.23 131.527C1369.05 117.296 1393.3 114.94 1413.55 121.644C1423.28 124.866 1432.07 130.178 1440 137.271V138.338C1432.01 131.079 1423.14 125.653 1413.3 122.396C1393.25 115.756 1369.19 118.106 1340.58 132.235C1302 151.291 1255.16 191.754 1198.73 260.438C1087.45 395.884 879.162 507.418 736.654 539.933C698.165 548.715 664.46 551.735 638.745 547.913C612.926 544.076 595.132 533.341 588.578 514.619C583.308 499.565 585.34 479.354 596.351 453.432C581.291 484.261 577.913 507.686 583.809 524.525C590.252 542.935 607.825 553.504 633.344 557.297C658.964 561.104 692.57 558.087 730.965 549.328C873.34 516.842 1081.43 405.416 1192.6 270.103C1249.11 201.324 1296.04 160.795 1334.72 141.692C1363.53 127.462 1387.79 125.107 1408.03 131.81C1420.08 135.799 1430.69 142.993 1440 152.8V153.956C1430.64 143.93 1419.95 136.589 1407.78 132.563C1387.73 125.923 1363.68 128.271 1335.07 142.402C1296.48 161.459 1249.64 201.919 1193.21 270.604C1081.93 406.05 873.646 517.585 731.138 550.099C692.649 558.88 658.944 561.902 633.228 558.081C607.411 554.243 589.615 543.508 583.062 524.785C577.792 509.731 579.824 489.521 590.834 463.599C575.774 494.429 572.397 517.852 578.293 534.693C584.492 552.404 600.992 562.855 624.955 567H620.741C598.691 562.35 583.491 551.938 577.545 534.952C572.277 519.898 574.309 499.687 585.319 473.765C570.258 504.596 566.881 528.019 572.776 544.858C576.053 554.221 582.211 561.555 590.825 567H589.362C581.142 561.534 575.238 554.285 572.031 545.117C566.761 530.063 568.792 509.854 579.803 483.932C564.741 514.761 561.364 538.185 567.26 555.025C568.816 559.469 571.023 563.455 573.83 567H572.821C570.144 563.513 568.029 559.613 566.514 555.285C561.244 540.231 563.276 520.019 574.286 494.098C559.225 524.929 555.848 548.352 561.745 565.191C561.959 565.803 562.186 566.406 562.425 567H561.574C561.373 566.49 561.181 565.974 560.998 565.452C555.728 550.396 557.759 530.187 568.77 504.265C556.057 530.289 551.669 551.036 554.156 567H553.36C551.232 553.115 554.22 535.696 563.254 514.43C553.086 535.246 548.245 552.685 547.986 567H547.2C547.416 555.049 550.787 540.962 557.737 524.597C549.864 540.717 545.184 554.811 543.352 567H542.56C543.986 557.43 547.151 546.703 552.222 534.763C546.448 546.583 542.392 557.311 539.917 567H539.108C540.842 560.16 543.359 552.81 546.706 544.93C542.88 552.76 539.81 560.112 537.453 567H536.623C537.922 563.175 539.444 559.207 541.189 555.096C539.186 559.194 537.393 563.161 535.798 567H534.946C535.184 566.424 535.426 565.845 535.673 565.263L534.834 567H533.959C536.338 562.006 539.026 556.819 542.036 551.431C542.508 550.586 542.96 549.755 543.424 548.915C544.727 546.411 546.103 543.861 547.552 541.265C548.024 540.421 548.48 539.586 548.941 538.749C549.88 536.943 550.858 535.112 551.873 533.258C629.299 385.773 607.588 306.645 534.322 265.727C440.055 213.083 260.523 223.482 96.9044 232.958C63.6936 234.881 31.1452 236.764 0.0878906 238.077V237.287C31.1276 235.975 63.6632 234.091 96.8596 232.168C260.587 222.686 440.235 212.278 534.706 265.037C601.856 302.535 625.995 371.858 570.915 495.9C631.859 365.744 608.468 293.888 539.839 255.561C445.569 202.918 266.038 213.317 102.421 222.791C67.239 224.829 32.7979 226.822 0.0878906 228.139V227.348C32.7803 226.032 67.207 224.039 102.376 222.003C266.104 212.518 445.752 202.113 540.223 254.87C607.372 292.37 631.512 361.691 576.432 485.733C637.377 355.577 613.983 283.721 545.355 245.394C451.086 192.75 271.555 203.149 107.936 212.626C70.7732 214.779 34.4314 216.882 0.0878906 218.191V217.399C34.4122 216.09 70.7412 213.987 107.893 211.835C271.619 202.351 451.268 191.946 545.739 244.704C612.887 282.203 637.028 351.525 581.947 475.568C642.893 345.41 619.501 273.555 550.87 235.228C456.602 182.583 277.071 192.984 113.452 202.458C74.2914 204.728 36.0457 206.941 0.0878906 208.225V207.436C36.0265 206.149 74.2594 203.936 113.409 201.67C277.135 192.186 456.785 181.78 551.256 234.537C618.404 272.037 642.545 341.358 587.463 465.4C648.41 335.243 625.018 263.388 556.387 225.061C462.119 172.418 282.587 182.817 118.969 192.293C77.7967 194.678 37.6408 197.001 0.0878906 198.248V197.458C37.6216 196.209 77.7648 193.886 118.925 191.503C282.651 182.018 462.301 171.613 556.772 224.372C623.92 261.87 648.06 331.192 592.98 455.235C653.926 325.077 630.534 253.222 561.903 214.895C467.635 162.25 288.104 172.651 124.485 182.126C81.2925 184.627 39.2119 187.064 0.0878906 188.259V187.472C39.1911 186.272 81.2589 183.837 124.442 181.337C288.168 171.853 467.816 161.447 562.287 214.204C629.437 251.704 653.576 321.025 598.496 445.068C659.443 314.91 636.049 243.055 567.42 204.728C473.15 152.085 293.619 162.484 130.002 171.96C84.7707 174.58 40.7606 177.125 0.0878906 178.253V177.466C40.7366 176.335 84.7371 173.79 129.957 171.17C293.684 161.686 473.333 151.28 567.804 204.039C634.953 241.537 659.092 310.86 604.013 434.9C664.958 304.744 641.566 232.888 572.936 194.563C478.667 141.918 299.135 152.317 135.516 161.793C88.2329 164.531 42.2853 167.188 0.0878906 168.228V167.441C42.2629 166.398 88.1977 163.741 135.473 161.003C299.199 151.52 478.849 141.115 573.32 193.872C640.47 231.372 664.609 300.693 609.529 424.735C670.474 294.577 647.082 222.722 578.451 184.396C484.183 131.752 304.652 142.151 141.033 151.627C91.6807 154.486 43.7828 157.256 0.0878906 158.191V157.404C43.7588 156.466 91.6455 153.696 140.99 150.837C304.716 141.353 484.366 130.947 578.837 183.706C645.984 221.204 670.125 290.527 615.044 414.568C675.991 284.412 652.598 212.555 583.967 174.23C489.7 121.585 310.168 131.984 146.549 141.46C95.1157 144.44 45.2515 147.328 0.0878906 148.135V147.348C45.2243 146.536 95.0773 143.65 146.506 140.67C310.232 131.187 489.882 120.782 584.353 173.539C651.501 211.039 675.64 280.36 620.56 404.402C681.507 274.244 658.115 202.39 589.484 164.063C495.216 111.419 315.683 121.818 152.066 131.295C98.5251 134.395 46.6946 137.394 0.0878906 138.055V137.271C46.6658 136.605 98.4883 133.606 152.023 130.504C315.749 121.02 495.397 110.615 589.868 163.373C657.017 200.872 681.157 270.193 626.077 394.235C687.022 264.079 663.63 192.222 595 153.897C500.731 101.252 321.199 111.651 157.582 121.127C101.918 124.352 48.1042 127.465 0.0878906 127.955V127.169C48.0754 126.673 101.88 123.562 157.537 120.337C321.265 110.855 500.913 100.449 595.384 153.206C662.534 190.706 686.673 260.027 631.593 384.069C692.538 253.912 669.146 182.057 600.517 143.73C506.247 91.0866 326.716 101.486 163.097 110.962C105.294 114.31 49.4817 117.54 0.0878906 117.834V117.05C49.4497 116.748 105.254 113.52 163.054 110.172C326.78 100.688 506.43 90.282 600.901 143.041C668.05 180.539 692.19 249.86 637.11 373.902C698.055 243.746 674.663 171.89 606.033 133.563C511.764 80.9194 332.232 91.3186 168.614 100.795C108.652 104.269 50.8224 107.619 0.0878906 107.692V106.908C50.7872 106.827 108.609 103.479 168.57 100.004C332.296 90.5219 511.946 80.1165 606.417 132.873C673.565 170.373 697.706 239.694 642.625 363.737C703.571 233.579 680.179 161.724 611.548 123.397C517.28 70.7539 337.749 81.153 174.13 90.6291C111.98 94.2283 52.1295 97.6914 0.0878906 97.5155V96.7349C52.0927 96.9028 111.937 93.4381 174.087 89.8389C337.813 80.3548 517.463 69.9493 611.934 122.706C679.082 160.206 703.223 229.527 648.141 353.57C709.088 223.413 685.696 151.557 617.065 113.23C522.797 60.5867 343.265 70.9858 179.647 80.462C115.287 84.1907 53.3966 87.769 0.0878906 87.3147V86.5341C53.3566 86.9804 115.242 83.4005 179.603 79.6717C343.329 70.1892 522.978 59.7837 617.449 112.541C684.598 150.039 708.737 219.362 653.658 343.404C714.603 213.246 691.211 141.391 622.581 103.065C528.312 50.4211 348.78 60.8202 185.163 70.2964C118.572 74.1531 54.6222 77.853 0.0878906 77.0868V76.3062C54.579 77.0628 118.524 73.3629 185.12 69.5062C348.846 60.022 528.494 49.6165 622.965 102.374C690.115 139.873 714.254 209.194 659.174 333.237C720.119 203.081 696.727 131.224 628.098 92.8974C533.828 40.254 354.297 50.6531 190.678 60.1292C121.831 64.1171 55.7997 67.9402 0.0878906 66.83V66.0494C55.7549 67.1499 121.781 63.3285 190.635 59.339C354.362 49.8565 534.011 39.4494 628.482 92.2079C695.631 129.706 719.77 199.029 664.691 323.071C725.636 192.914 702.243 121.059 633.614 82.7318C539.345 30.0884 359.813 40.4875 196.194 49.962C125.061 54.0827 56.934 58.0273 0.0878906 56.5381V55.7591C56.8828 57.2387 125.011 53.2941 196.151 49.1734C359.877 39.6893 539.527 29.2838 633.998 82.0408C701.146 119.541 725.287 188.862 670.205 312.904C731.152 182.748 707.76 110.891 639.129 72.5646C544.861 19.9212 365.33 30.3203 201.711 39.7965C128.258 44.0515 58.0188 48.1145 0.0878906 46.2045V45.4271C57.9628 47.3259 128.206 43.2612 201.668 39.0063C365.394 29.5221 545.043 19.1166 639.514 71.8752C706.664 109.375 730.803 178.694 675.722 302.738C736.669 172.581 713.275 100.726 644.645 62.3991C550.378 9.75406 370.846 20.1548 207.227 29.6293C131.425 34.0203 59.0475 38.2081 0.0878906 35.8358V35.0584C58.9883 37.4194 131.371 33.2316 207.184 28.8407C370.91 19.3566 550.56 8.95104 645.031 61.708C712.179 99.2079 736.321 168.529 681.238 292.571C742.185 162.414 718.791 90.5587 650.162 52.2319C555.892 -0.411517 376.361 9.9876 212.744 19.4637C134.561 23.9923 60.0186 28.3048 0.0878906 25.4255V24.6481C59.9562 27.5146 134.502 23.2036 212.701 18.6735C376.427 9.18939 556.075 -1.21613 650.546 51.5425C717.695 89.0407 741.835 158.363 686.755 282.404C747.7 152.248 724.308 80.3916 655.678 42.0663C561.409 -10.5787 381.877 -0.177967 218.259 9.29657C137.66 13.9659 60.9274 18.4048 0.0878906 14.972V14.1962ZM683.373 567.002C696.567 565.392 710.651 562.872 725.448 559.495C867.825 527.01 1075.91 415.583 1187.08 280.27C1243.59 211.493 1290.52 170.964 1329.2 151.859C1358.01 137.629 1382.27 135.274 1402.51 141.977C1417.01 146.777 1429.44 156.218 1440 169.27V170.536C1429.4 157.204 1416.89 147.572 1402.27 142.73C1382.22 136.09 1358.16 138.44 1329.55 152.57C1290.96 171.626 1244.12 212.086 1187.69 280.771C1076.41 416.219 868.129 527.752 725.621 560.266C713.022 563.14 700.935 565.399 689.473 567.002H683.373ZM730.995 567.002C872.902 531.447 1073.24 422.289 1181.57 290.437C1238.07 221.659 1285 181.129 1323.68 162.026C1352.5 147.796 1376.75 145.44 1397 152.144C1414.1 157.807 1428.32 169.93 1440 186.819V188.219C1428.3 170.975 1413.99 158.606 1396.75 152.896C1376.7 146.256 1352.64 148.606 1324.03 162.735C1285.45 181.791 1238.61 222.254 1182.18 290.938C1074.52 421.972 876.082 530.62 734.24 567.002H730.995ZM761.369 567.002C899.526 523.612 1076.58 421.675 1176.05 300.603C1232.56 231.826 1279.49 191.296 1318.17 172.192C1346.98 157.962 1371.24 155.607 1391.48 162.31C1411.37 168.897 1427.37 184.228 1440 205.629V207.196L1439.99 207.177C1427.35 185.339 1411.28 169.701 1391.23 163.063C1371.18 156.423 1347.13 158.773 1318.51 172.902C1279.93 191.959 1233.09 232.419 1176.66 301.104C1077.67 421.587 901.93 523.147 764.006 567.002H761.369ZM785.982 567.002C918.885 519.133 1078.16 423.201 1170.53 310.77C1227.04 241.991 1273.97 201.462 1312.65 182.359C1341.46 168.129 1365.72 165.773 1385.96 172.477C1406.21 179.181 1422.43 194.943 1435.15 216.946C1436.83 219.84 1438.44 222.846 1440 225.95V227.734C1438.23 224.133 1436.39 220.665 1434.47 217.343C1421.84 195.505 1405.76 179.867 1385.72 173.229C1365.67 166.589 1341.61 168.938 1313 183.068C1274.41 202.124 1227.57 242.586 1171.14 311.271C1079.16 423.226 920.908 518.84 788.304 567.002H785.982ZM807.266 567.002C934.229 516.481 1078.78 425.901 1165.02 320.936C1221.52 252.159 1268.45 211.629 1307.13 192.525C1335.95 178.295 1360.21 175.94 1380.45 182.642C1400.7 189.348 1416.91 205.109 1429.64 227.112C1433.39 233.597 1436.84 240.624 1440 248.123V250.177C1436.65 242.052 1432.98 234.465 1428.95 227.51C1416.32 205.672 1400.25 190.034 1380.2 183.396C1360.15 176.756 1336.09 179.106 1307.48 193.235C1268.9 212.291 1222.06 252.752 1165.63 321.438C1079.72 425.995 936.021 516.292 809.387 567.002H807.266ZM826.276 567.002C946.944 515.016 1078.77 429.363 1159.5 331.103C1216.01 262.324 1262.94 221.795 1301.62 202.692C1330.43 188.462 1354.69 186.106 1374.93 192.81C1395.18 199.514 1411.39 215.276 1424.12 237.279C1430.18 247.758 1435.46 259.654 1440 272.664V275.086C1435.31 261.278 1429.81 248.689 1423.44 237.676C1410.81 215.838 1394.73 200.2 1374.69 193.563C1354.64 186.921 1330.58 189.271 1301.97 203.401C1263.38 222.457 1216.54 262.919 1160.11 331.604C1079.68 429.5 948.582 514.894 828.265 567.002H826.276ZM843.566 567.002C957.753 514.393 1078.32 433.37 1153.99 341.268C1210.49 272.491 1257.42 231.962 1296.1 212.858C1324.92 198.629 1349.18 196.273 1369.42 202.975C1389.66 209.681 1405.88 225.442 1418.61 247.446C1427.3 262.478 1434.37 280.432 1440 300.4V303.354C1434.27 282.348 1426.98 263.501 1417.92 247.843C1405.29 226.005 1389.22 210.367 1369.17 203.729C1349.12 197.089 1325.06 199.438 1296.45 213.568C1257.87 232.624 1211.03 273.085 1154.6 341.771C1079.2 433.542 959.269 514.326 845.441 567.002H843.566ZM859.475 567.002C967.099 514.413 1077.52 437.793 1148.47 351.436C1204.98 282.657 1251.91 242.127 1290.59 223.025C1319.4 208.795 1343.66 206.438 1363.9 213.142C1384.15 219.846 1400.36 235.609 1413.09 257.612C1424.92 278.053 1433.74 303.892 1440 332.861V336.67C1433.71 306.301 1424.68 279.23 1412.41 258.008C1399.77 236.17 1383.7 220.532 1363.65 213.896C1343.6 207.256 1319.55 209.604 1290.94 223.733C1252.35 242.79 1205.51 283.252 1149.08 351.936C1078.38 437.991 968.522 514.384 861.255 567.002H859.475ZM874.211 567.002C975.264 514.937 1076.45 442.548 1142.95 361.601C1199.46 292.824 1246.39 252.294 1285.07 233.192C1313.88 218.962 1338.14 216.605 1358.38 223.308C1378.63 230.013 1394.85 245.774 1407.57 267.779C1423.42 295.164 1433.87 332.237 1440 373.554V379.143C1434.01 335.726 1423.38 296.674 1406.89 268.175C1394.26 246.338 1378.18 230.7 1358.14 224.061C1338.09 217.421 1314.03 219.771 1285.42 233.901C1246.83 252.957 1199.99 293.419 1143.56 362.103C1077.29 442.764 976.624 514.939 875.93 567.002H874.211ZM887.954 567.002C982.47 515.87 1075.16 447.569 1137.44 371.768C1193.94 302.99 1240.87 262.46 1279.55 243.357C1308.37 229.127 1332.63 226.771 1352.87 233.475C1373.11 240.179 1389.33 255.942 1402.06 277.944C1420.85 310.426 1432.06 356.534 1437.46 407.185L1436.67 407.269C1431.28 356.719 1420.11 310.721 1401.37 278.341C1388.74 256.503 1372.67 240.865 1352.62 234.228C1332.57 227.588 1308.51 229.937 1279.9 244.066C1241.32 263.122 1194.48 303.585 1138.05 372.269C1075.99 447.806 983.757 515.897 889.592 567.002H887.954ZM900.794 567.002C988.847 517.142 1073.68 452.819 1131.92 381.934C1188.43 313.157 1235.36 272.627 1274.04 253.525C1302.85 239.294 1327.11 236.938 1347.35 243.641C1367.6 250.346 1383.81 266.107 1396.54 288.112C1415.33 320.593 1426.54 366.699 1431.94 417.353L1431.16 417.436C1425.77 366.885 1414.59 320.888 1395.86 288.508C1383.22 266.67 1367.15 251.032 1347.1 244.394C1327.05 237.754 1303 240.104 1274.39 254.233C1235.8 273.289 1188.96 313.752 1132.53 382.436C1074.5 453.069 990.088 517.19 902.385 567.002H900.794Z" stroke="white" stroke-width="2"/>
</mask>
<g mask="url(#mask0_43_10)">
<path d="M0.0878906 567H1440V-11.3897H0.0878906V567Z" fill="white"/>
<path d="M0.0878906 567H1440V-11.3897H0.0878906V567Z" fill="url(#paint0_linear_43_10)"/>
</g>
<defs>
<linearGradient id="paint0_linear_43_10" x1="721.766" y1="-222181" x2="-1.29896e+07" y2="-222181" gradientUnits="userSpaceOnUse">
<stop stop-color="#67FCD2"/>
<stop offset="0.47" stop-color="#FFD4F7"/>
<stop offset="1" stop-color="#0890B4"/>
</linearGradient>
</defs>
</svg>
